<?xml version="1.0" encoding="utf-8"?>
<!-- Generator: Adobe Illustrator 22.0.0, SVG Export Plug-In . SVG Version: 6.00 Build 0)  -->
<svg version="1.1" id="Capa_1" xmlns="http://www.w3.org/2000/svg" xmlns:xlink="http://www.w3.org/1999/xlink" x="0px" y="0px"
	 viewBox="0 0 83.8 83.8" style="enable-background:new 0 0 83.8 83.8;" xml:space="preserve">
<style type="text/css">
	.st0{clip-path:url(#SVGID_2_);fill:#ECB731;}
	.st1{clip-path:url(#SVGID_2_);}
</style>
<g>
	<defs>
		<rect id="SVGID_1_" x="0.3" y="0.5" width="83.7" height="83.7"/>
	</defs>
	<clipPath id="SVGID_2_">
		<use xlink:href="#SVGID_1_"  style="overflow:visible;"/>
	</clipPath>
	<path class="st0" d="M42.1,84.2c23.1,0,41.8-18.7,41.8-41.8S65.2,0.5,42.1,0.5S0.3,19.3,0.3,42.4S19,84.2,42.1,84.2"/>
	<path class="st1" d="M39.8,57.3h4.6c1.3,0,2.3-0.9,2.4-2l1.6-41.5c0-0.5-0.2-1.1-0.7-1.4c-0.5-0.4-1.1-0.6-1.7-0.6h-7.8
		c-0.6,0-1.3,0.2-1.7,0.6c-0.4,0.4-0.7,0.9-0.7,1.4l1.6,41.5C37.4,56.4,38.5,57.3,39.8,57.3"/>
	<path class="st1" d="M45.8,61.7h-7.5c-1.3,0-2.3,0.9-2.3,1.9V71c0,1.1,1,1.9,2.3,1.9h7.5c1.3,0,2.3-0.9,2.3-1.9v-7.3
		C48.2,62.6,47.1,61.7,45.8,61.7"/>
</g>
</svg>
