<?xml version="1.0" encoding="utf-8"?>
<!-- Generator: Adobe Illustrator 22.0.0, SVG Export Plug-In . SVG Version: 6.00 Build 0)  -->
<svg version="1.1" id="Capa_1" xmlns="http://www.w3.org/2000/svg" xmlns:xlink="http://www.w3.org/1999/xlink" x="0px" y="0px"
	 viewBox="0 0 612 792" style="enable-background:new 0 0 612 792;" xml:space="preserve">
<style type="text/css">
	.st0{fill:#FFFFFF;}
</style>
<path class="st0" d="M562.8,154c0.1,0,0.2,0.1,0.3,0.1c0,0.4,0,0.7,0,1.1c-0.1,1.3-0.3,2.6-0.3,3.9c0,3,0.7,5.8,2.3,8.3
	c0.7,1.1,1.8,2,3.1,2.4c0.9,0.3,1.7,0.2,2.5-0.4c1.6-1.2,2.9-2.6,4.1-4.1c1.4-1.8,2.7-3.6,3.9-5.6c2.5-4.1,4.9-8.3,6.4-12.9
	c-0.1-0.2-0.2-0.4-0.3-0.7c-0.1-0.2-0.3-0.4-0.4-0.5c-0.7,0-1,0.4-1.3,0.9c-0.3,0.5-0.5,1-0.6,1.5c-0.6,1.7-1.2,3.4-2.2,4.9
	c-1.8,3-3.5,6.1-5.4,9.2c-1.1,1.8-2.5,3.4-4.1,4.8c-0.7,0.6-1.5,1.1-2.6,0.9c-1-3.2-1.5-6.4-1.1-9.7c0.4-3.2,1.1-6.2,1.8-9.3
	c0.3-1.4,1-2.3,2.1-3.2c1.9-1.4,3.8-2.9,5.5-4.5c3.4-3.1,6.5-6.4,9.5-9.9c2.6-3,4.9-6.3,7-9.8c1.1-1.9,2.1-3.8,1.6-6.1
	c-0.1-0.7-0.3-1.3-0.7-1.9c-1.2-1.6-2.7-2.4-4.6-2.2c-1.7,0.1-3.5,0.2-4.9,1.5c-2.3,2.2-4.6,4.3-6.4,7c-1.6,2.3-3.5,4.4-4.6,7
	c-0.2,0.5-0.5,1.1-0.8,1.6c-2.2,4-4.3,8-5.9,12.3c-0.4,1-0.5,2-0.8,3c-0.1,0.2,0.1,0.5,0.1,0.7c-0.2,0.1-0.4,0.3-0.6,0.4
	c-0.2,0.1-0.3,0.2-0.5,0.3c-0.2,0-0.3,0-0.4-0.1c-0.1-0.1-0.3-0.1-0.4-0.2c-2.7-1.2-5.4-0.9-7.9,0.6c-2,1.2-3.7,2.7-5.1,4.6
	c-1.7,2.4-3.1,4.9-4.3,7.5c-1.5,3.3,1.1,6.7,4.2,7.3c0.4,0.1,1,0,1.4-0.2c1-0.6,2.3-0.9,2.7-2.2c0.1-0.2,0.3-0.3,0.4-0.4
	c2.3-1.8,4.4-3.9,6.2-6.3C562,154.9,562.4,154.5,562.8,154L562.8,154z M571,142.4c0.6-1.5,1.2-3,2-4.5c1.2-2.4,2.4-4.8,3.6-7.2
	c2.1-4.2,4.6-8.2,7.9-11.6c1.6-1.7,3.2-3.5,5.5-4.4c0.6-0.2,1.1-0.8,1.6-1.2c0.6,0.3,0.6,0.8,0.7,1.2c0.2,1.6-0.1,3.1-0.9,4.6
	c-1.6,2.9-3.3,5.8-5.3,8.4c-1.9,2.4-4,4.7-6,6.9c-1.6,1.7-3.2,3.3-4.9,4.9c-1.2,1.1-2.5,2.1-3.8,3.1
	C571.2,142.6,571.1,142.5,571,142.4z M550.5,162.3c0-0.7-0.1-1.3,0.1-1.8c0.7-1.6,1.3-3.2,2.3-4.7c1-1.5,1.8-3.1,3.1-4.4
	c1.3-1.2,2.6-2.2,4.2-3c0.6-0.3,1.2-0.9,1.7-1.3c0.4-0.3,0.8-0.6,1.2-1c0.4,0.3,0.8,0.6,1.1,0.8c0.2,1-0.1,1.7-0.6,2.4
	c-2.6,3.7-5.1,7.4-8.8,10.1c-0.6,0.4-1.1,1-1.6,1.5C552.6,161.6,551.8,162.2,550.5,162.3 M553.4,149.3c-0.3,0-0.5,0-0.8-0.1
	c-0.6,1-1.1,2-1.6,3c-1.7,3.5-3.7,6.9-6,10c-1.2,1.6-2.5,3-3.9,4.4c-0.9,0.9-2,1.5-3.3,1.6c-0.5-0.5-0.7-1.1-0.7-1.8
	c0-0.7-0.1-1.5,0-2.2c0.4-3.4,1.1-6.7,2.2-9.9c1-2.7,1.9-5.5,3.2-8.1c0.8-1.6-0.1-3.4-1.5-4.1c-1.1-0.5-2.1-0.2-3.2-0.1
	c-0.7,1-1.4,2-2,2.9c-1.3,1.9-2.7,3.8-4.1,5.7c-2.2,3.2-4.6,6.3-7.2,9.2c-0.8,0.9-1.7,1.8-3,2.1c-0.3-1.1-0.3-1.1-0.2-1.8
	c1-4.6,2.8-9,4.9-13.2c0.4-0.7,0.6-1.5,0.9-2.2c0.1-0.3,0-0.8-0.1-1.1c-0.5-1.1-1.3-1.8-2.4-2.2c-1.2-0.5-2.2,0-2.6,1.3
	c-0.4,1.1-0.8,2.2-1.2,3.3c-1,2.5-2.1,5-2.8,7.6c-0.4,1.6-0.8,3.2-1.2,4.7c-0.7,2.2-0.2,4.2,1.8,5.4c1.7,1,2.7,1.4,4.2,0.3
	c2-1.6,4-3.2,5.5-5.5c0.4-0.6,0.9-1.2,1.4-1.7c0.7-0.8,1.4-1.6,2-2.5c0.7-1.1,1.4-2.3,2.1-3.4c0.6-0.8,1.2-1.6,1.8-2.4
	c-0.5,2.2-1,4.3-1.7,6.4c-0.9,3.1-1.5,6.1-1.6,9.3c0,1.2,0.3,2.2,1,3.1c0.8,1.1,1.8,2,3,2.5c2.3,1,4.3,0.9,6.3-0.9
	c1.4-1.3,2.4-2.8,3.4-4.3c2.4-3.7,4.7-7.4,6.4-11.4c0.1-0.3,0.3-0.6,0.5-0.8c0.6-1.1,1.2-2.1,1.8-3.2
	C554.2,149.3,553.8,149.3,553.4,149.3z M530.9,112.9c-0.3-0.7-0.7-1.2-1.4-1.4c-1.6-0.6-3.2-0.8-4.8-0.4c-2.1,0.5-3.8,1.7-5.4,3.2
	c-1.7,1.6-3.4,3.3-4.9,5.2c-0.9,1.1-1.8,2.1-2.6,3.2c-1.7,2.4-3.3,4.8-4.9,7.2c-0.7,1.1-1.4,2.2-2.1,3.4c-1,1.6-2,3.2-2.9,4.9
	c-1,1.9-1.9,3.8-2.8,5.7c-0.9,1.9-1.7,3.8-2.5,5.7c-0.8,2-1.5,4-2.3,6.1c-0.7,1.9-1.7,3.8-2.2,5.8c-1,3.8-2,7.6-2.2,11.5
	c0,0.3-0.1,0.6-0.2,0.9c-0.5,1.9-0.5,3.8-0.4,5.7c0,0.6,0.2,1.3,0.3,1.9c0.7,2.6,2.5,4.2,4.9,5c1.7,0.6,3.6,0.7,5-0.9
	c0.6-0.7,1.2-1.5,1.9-2.1c1.1-0.8,1.7-1.9,2.4-3.1c0.7-1.2,1.5-2.3,2.3-3.4c1.7-2.1,4.2-4.1,5.1-6.6c0.2-0.5,2.3-2.7,2.6-3.2
	c1.4-1.8,5.2-7,6.5-9.7c-0.1,0-0.2,0-0.3,0c0,0,0,0,0,0c-0.1,0-0.1,0-0.2,0c-1,0.1-1.8,0-2.9-0.1c-3,5.1-7,11.2-9.6,14.4
	c-0.8,1.6-2.6,2.9-3.7,4.3c-0.9,1.2-1.8,2.5-2.6,3.8c-1.4,2.3-3.7,3.3-5.9,4.7c-0.3-0.2-0.5-0.4-0.6-0.6c-0.2-0.7-0.5-1.4-0.5-2.1
	c-0.2-1.9,0.1-3.8,0.2-5.7c0.2-2.9,0.7-5.8,1.4-8.6c0.5-2.1,1.1-4.1,1.7-6.1c0.5-1.6,1.2-3.1,1.8-4.6c0.3-0.8,0.6-1.7,0.9-2.5
	c0.3-0.9,0.7-1.6,1.8-1.8c1.2-0.2,2.2-0.9,3-1.6c0.7-0.6,1.3-1.2,2-1.8c2.6-2,5-4.2,7.3-6.6c1.5-1.6,2.8-3.6,4.7-4.9
	c0.2-0.2,0.4-0.5,0.6-0.8c0.5-1.4,1.5-2.5,2.6-3.6c0.5-0.5,1-1.1,1.4-1.7c1.3-1.7,2.4-3.6,4-5c0.3-0.3,0.5-0.8,0.7-1.2
	c0.2-0.3,0.2-0.7,0.4-1c1.4-2.6,2.3-5.3,2.6-8.2C531.5,115,531.4,113.9,530.9,112.9z M491.9,173.8c0-0.1-0.1-0.1-0.1-0.2l0.6-0.3
	c0,0.1,0.1,0.2,0.1,0.3C492.3,173.6,492.1,173.7,491.9,173.8 M494.2,160.9c-0.1,0-0.1,0-0.2-0.1c0.1-0.3,0.2-0.5,0.3-0.8
	c0.1,0,0.2,0.1,0.2,0.1C494.3,160.4,494.3,160.6,494.2,160.9 M495.5,157.5c-0.1,0-0.1-0.1-0.2-0.1c0.1-0.2,0.2-0.4,0.2-0.7
	c0.1,0,0.2,0.1,0.3,0.1C495.7,157.1,495.6,157.3,495.5,157.5z M496.8,157.6c0,0.1-0.1,0.1-0.2,0.1c0-0.1-0.1-0.1,0-0.1
	c0.1-0.2,0.2-0.4,0.2-0.5c0,0,0.1,0,0.2,0C497,157.2,496.9,157.4,496.8,157.6 M528.7,116.6c-0.2,3.9-2,7.1-4.2,10.1
	c-3.9,5.4-8.3,10.4-13.1,15c-2.5,2.4-5.2,4.6-7.8,6.9c-0.2,0.2-0.5,0.3-1,0.3c0.3-0.8,0.7-1.6,1-2.4c0.7-1.4,1.4-2.9,2-4.3
	c2.1-4.5,4.6-8.7,7.3-12.8c2.5-3.8,5.3-7.5,8.7-10.6c2.6-2.3,3.4-3,7-4.8C529.1,114.9,528.8,115.8,528.7,116.6 M495.5,150.6
	c-0.1,0.2-0.1,0.4-0.2,0.6c-1.3,3.4-2.5,6.8-4.1,10.1c-1.8,3.6-3.8,7-6.6,9.9c-0.8,0.8-1.6,1.5-2.8,1.7c-0.1-0.3-0.2-0.5-0.3-0.7
	c-0.6-3.6-0.5-7.1,0.7-10.5c1-3.2,2.3-6.2,3.5-9.3c0.5-1.3,1.2-2.5,1.7-3.7c1-2.3-0.7-4.7-3.1-4.9c-1.1-0.1-1.3,1.4-2.4,1
	c-0.1,0-0.4,0.3-0.5,0.5c-0.2,0.3-0.5,0.6-0.7,1c-0.7-0.9-1.3-1.7-2-2.4c-1.3-1.6-4.2-2.1-6.1-1.2c-1,0.5-1.9,1.1-2.6,2
	c-0.7,0.9-1.4,1.8-2.1,2.6c-2.5,2.9-3.8,6.4-4.7,10.1c-0.7,2.8-0.1,5.3,2.2,7.3c1.5,1.3,3.5,1.3,5,0.1c1.1-0.9,1.9-2,2.8-3
	c2.6-3.3,4.9-6.7,6.8-10.5c0.2-0.4,0.5-0.8,0.7-1.2c0.1,0,0.1,0,0.2,0.1c-0.6,1.6-1.1,3.3-1.7,4.9c-1,3-2.1,5.9-2.4,9
	c-0.2,2.2-0.1,4.3,0.6,6.4c0.7,2,2,3.3,4,3.9c1,0.3,1.9,0.2,2.7-0.4c1.4-0.9,2.4-2.2,3.3-3.5c1.5-2.1,2.7-4.4,4-6.6
	c1.5-2.5,2.9-5,3.9-7.8c0.6-1.8,1.3-3.6,2.1-5.4H495.5z M479.1,149.2c-2.2,3.7-4.4,7.4-7.1,10.7c-0.7,0.9-1.5,1.6-2.3,2.4
	c-0.6,0.5-1.3,0.9-2.1,0.9c-0.1-0.1-0.3-0.2-0.3-0.3c-0.2-1.4-0.3-2.8,0.1-4.2c1.2-3.9,3.1-7.5,5.7-10.7c0.8-1,1.9-1.8,2.5-3
	c0.1-0.3,0.5-0.5,0.9-0.8c1.7,1,2,2.8,2.9,4.3C479.3,148.7,479.2,149,479.1,149.2z M467.7,148.6c-5.2,2.7-10.2,5.7-15.2,8.2
	c-2.7-1.9-5.1-3.6-7.7-5.5c0.3-0.8,0.5-1.6,0.8-2.3c1.1-2.2,2.7-3.9,4.5-5.4c1.3-1.1,2.6-2.1,4-3.2c1.3-1,1.3-2.7,0.1-3.8
	c-0.3-0.3-0.7-0.5-1-0.8c-1-0.8-1.4-0.8-2.5,0c-2.2,1.7-4.1,3.8-6,5.9c-0.6,0.7-1.3,1.4-1.8,2.2c-0.6,0.9-0.9,1.9-1.4,2.8
	c-1,2-1,3.3,1.1,5.2c1.4,1.3,3,2.5,4.8,3.3c1.3,0.6,2.2,1.6,2.5,3.1c-0.5,0.4-0.9,0.7-1.4,1c-0.8,0.5-1.7,1-2.6,1.6
	c-4.2,2.6-8.1,5.6-12,8.6c-0.6,0.5-1.1,1-1.6,1.6c-1.2,1.4-2.3,2.8-3.4,4.2c-0.9,1.2-1.8,2.3-2.3,3.8c-0.7,2.4-0.6,4.6,1.5,6.5
	c1.8,1.7,3.9,2.4,6.1,2.7c2.9,0.4,5.6-0.4,7.9-2.1c1.5-1.1,2.7-2.5,4-3.9c1.9-2,3.6-4.2,5.1-6.6c0.7-1.1,1.2-2.2,1.8-3.3
	c0.9-1.6,1.5-3.4,1.8-5.2c0.3-2.2,0.4-4.4-0.5-6.6c-0.6-1.5-0.6-1.6,0-3c0-0.1,0.1-0.2,0,0c1-0.3,1.7-0.4,2.4-0.7
	c1.9-0.9,3.8-2,5.8-2.9c0.9-0.5,1.9-0.9,2.4-1.9c0.8,0.5,1.4,0.3,1.9-0.2c0.6-0.5,1.2-0.8,2-0.9c0.2,0,0.4-0.2,0.7-0.3
	C469.3,149.7,468.4,149.4,467.7,148.6z M449.5,161.7c-0.4-0.1-0.6-0.2-1.1-0.4c1-0.2,1.7-0.4,2.4-0.6c0.5,1.2,0.5,2.7,0.1,4.2
	c-0.7,2.7-1.8,5.2-2.9,7.7c-0.8,1.9-1.9,3.6-3.3,5.1c-0.2,0.2-0.3,0.5-0.5,0.5c-1.3,0.5-2.1,1.6-2.9,2.6c-1.7,2.3-4,3.7-6.6,4.6
	c-0.7,0.2-1.6-0.1-2.3,0c-1.7,0.2-2.7-0.8-3.4-2.1c-0.2-0.4-0.4-1.1-0.3-1.5c0.5-1.7,1-3.3,2.1-4.7c1.2-1.4,2.2-3,3.4-4.4
	c0.8-1,1.8-1.7,3-2.2c0.2-0.1,0.5-0.2,0.7-0.4c1.8-1.9,4.2-3.1,6.2-4.8c0.6-0.5,1.1-1,1.5-1.6c0.4-0.5,0.8-0.8,1.4-0.9
	C447.7,162.7,448.6,162.5,449.5,161.7z M442.5,182.1c0.3,0.9-0.5,1.1-0.8,1.6c-0.2,0.3-0.7,0.4-1.2,0.4c0.3-0.3,0.6-0.7,0.9-1
	C441.8,182.8,442.1,182.5,442.5,182.1z M449.9,159.5c-0.1,0.2-0.2,0.3-0.4,0.5c-0.1,0-0.1-0.1-0.2-0.1c0.1-0.2,0.2-0.3,0.4-0.5
	C449.8,159.4,449.8,159.4,449.9,159.5z M437.7,186.2c-0.1-0.1-0.3-0.3-0.4-0.4c0.1-0.1,0.1-0.1,0.2-0.2c0.1,0.1,0.3,0.3,0.4,0.4
	C437.8,186.1,437.8,186.1,437.7,186.2 M416.2,150.6c-0.1,0.2-0.1,0.4-0.2,0.6c-1.3,3.4-2.5,6.8-4.1,10.1c-1.8,3.6-3.8,7-6.6,9.9
	c-0.8,0.8-1.6,1.5-2.8,1.7c-0.1-0.3-0.2-0.5-0.3-0.7c-0.6-3.6-0.5-7.1,0.7-10.5c1-3.2,2.3-6.2,3.5-9.3c0.5-1.3,1.2-2.5,1.7-3.7
	c1-2.3-0.7-4.7-3.1-4.9c-1.1-0.1-1.3,1.4-2.4,1c-0.1,0-0.4,0.3-0.5,0.5c-0.2,0.3-0.5,0.6-0.7,1c-0.7-0.9-1.3-1.7-2-2.4
	c-1.3-1.6-4.2-2.1-6.1-1.2c-1,0.5-1.9,1.1-2.6,2c-0.7,0.9-1.4,1.8-2.1,2.6c-2.5,2.9-3.8,6.4-4.7,10.1c-0.7,2.8-0.1,5.3,2.2,7.3
	c1.5,1.3,3.5,1.3,5,0.1c1.1-0.9,1.9-2,2.8-3c2.6-3.3,4.9-6.7,6.8-10.5c0.2-0.4,0.5-0.8,0.7-1.2c0.1,0,0.1,0,0.2,0.1
	c-0.6,1.6-1.1,3.3-1.7,4.9c-1,3-2.1,5.9-2.4,9c-0.2,2.2-0.1,4.3,0.6,6.4c0.7,2,2,3.3,4,3.9c1,0.3,1.9,0.2,2.7-0.4
	c1.4-0.9,2.4-2.2,3.3-3.5c1.5-2.1,2.7-4.4,4-6.6c1.5-2.5,2.9-5,3.9-7.8c0.6-1.8,1.3-3.6,2.1-5.4H416.2z M399.8,149.2
	c-2.2,3.7-4.4,7.4-7.1,10.7c-0.7,0.9-1.5,1.6-2.3,2.4c-0.6,0.5-1.3,0.9-2.2,0.9c-0.1-0.1-0.3-0.2-0.3-0.3c-0.2-1.4-0.3-2.8,0.1-4.2
	c1.2-3.9,3.1-7.5,5.7-10.7c0.8-1,1.9-1.8,2.5-3c0.1-0.3,0.5-0.5,0.9-0.8c1.7,1,2,2.8,2.9,4.3C400,148.7,399.9,149,399.8,149.2z
	 M399.2,112.9c-0.3-0.7-0.7-1.2-1.4-1.4c-1.6-0.6-3.2-0.8-4.8-0.4c-2.1,0.5-3.8,1.7-5.4,3.2c-1.7,1.6-3.4,3.3-4.9,5.2
	c-0.9,1.1-1.8,2.1-2.6,3.2c-1.7,2.4-3.3,4.8-4.9,7.2c-0.7,1.1-1.4,2.2-2.1,3.4c-1,1.6-2,3.2-2.9,4.9c-1,1.9-1.9,3.8-2.8,5.7
	c-0.9,1.9-1.7,3.8-2.5,5.7c-0.8,2-1.5,4-2.3,6.1c-0.7,1.9-1.7,3.8-2.2,5.8c-1,3.8-2,7.6-2.2,11.5c0,0.3-0.1,0.6-0.2,0.9
	c-0.5,1.9-0.5,3.8-0.4,5.7c0,0.6,0.2,1.3,0.3,1.9c0.7,2.6,2.5,4.2,4.9,5c1.7,0.6,3.6,0.7,5-0.9c0.6-0.7,1.2-1.5,1.9-2.1
	c1.1-0.8,1.7-1.9,2.4-3.1c0.7-1.2,1.5-2.3,2.3-3.4c1.7-2.1,4.2-4.1,5.1-6.6c0.2-0.5,2.3-2.7,2.6-3.2c1.4-1.8,5.2-7,6.5-9.7
	c-0.1,0-0.2,0-0.3,0c0,0,0,0,0,0c-0.1,0-0.1,0-0.2,0c-1,0.1-1.8,0-2.9-0.1c-3,5.1-7,11.2-9.6,14.4c-0.8,1.6-2.6,2.9-3.7,4.3
	c-0.9,1.2-1.8,2.5-2.6,3.8c-1.4,2.3-3.7,3.3-5.9,4.7c-0.3-0.2-0.5-0.4-0.6-0.6c-0.2-0.7-0.5-1.4-0.5-2.1c-0.2-1.9,0.1-3.8,0.2-5.7
	c0.2-2.9,0.7-5.8,1.4-8.6c0.5-2.1,1.1-4.1,1.7-6.1c0.5-1.6,1.2-3.1,1.8-4.6c0.3-0.8,0.6-1.7,0.9-2.5c0.3-0.9,0.7-1.6,1.8-1.8
	c1.1-0.2,2.2-0.9,3-1.6c0.7-0.6,1.3-1.2,2-1.8c2.6-2,5-4.2,7.3-6.6c1.5-1.6,2.8-3.6,4.7-4.9c0.2-0.2,0.4-0.5,0.6-0.8
	c0.5-1.4,1.5-2.5,2.6-3.6c0.5-0.5,1-1.1,1.4-1.7c1.3-1.7,2.4-3.6,4-5c0.3-0.3,0.5-0.8,0.7-1.2c0.2-0.3,0.2-0.7,0.4-1
	c1.4-2.6,2.3-5.3,2.6-8.2C399.8,115,399.7,113.9,399.2,112.9z M360.2,173.8c0-0.1-0.1-0.1-0.1-0.2l0.6-0.3c0,0.1,0.1,0.2,0.1,0.3
	C360.6,173.6,360.4,173.7,360.2,173.8 M362.5,160.9c-0.1,0-0.1,0-0.2-0.1c0.1-0.3,0.2-0.5,0.3-0.8c0.1,0,0.2,0.1,0.2,0.1
	C362.6,160.4,362.5,160.6,362.5,160.9 M363.8,157.5c-0.1,0-0.1-0.1-0.2-0.1c0.1-0.2,0.2-0.4,0.2-0.7c0.1,0,0.2,0.1,0.3,0.1
	C364,157.1,363.9,157.3,363.8,157.5z M365.1,157.6c0,0.1-0.1,0.1-0.2,0.1c0-0.1-0.1-0.1,0-0.1c0.1-0.2,0.2-0.4,0.2-0.5
	c0,0,0.1,0,0.2,0C365.3,157.2,365.2,157.4,365.1,157.6 M397,116.6c-0.2,3.9-2,7.1-4.2,10.1c-3.9,5.4-8.3,10.4-13.1,15
	c-2.5,2.4-5.2,4.6-7.8,6.9c-0.2,0.2-0.5,0.3-1,0.3c0.3-0.8,0.7-1.6,1-2.4c0.7-1.4,1.4-2.9,2-4.3c2.1-4.5,4.6-8.7,7.3-12.8
	c2.5-3.8,5.3-7.5,8.7-10.6c2.6-2.3,3.4-3,7-4.8C397.4,114.9,397.1,115.8,397,116.6 M341,148.6c-5.2,2.7-10.2,5.7-15.2,8.2
	c-2.7-1.9-5.1-3.6-7.7-5.5c0.3-0.8,0.5-1.6,0.8-2.3c1.1-2.2,2.7-3.9,4.5-5.4c1.3-1.1,2.6-2.1,4-3.2c1.3-1,1.3-2.7,0.1-3.8
	c-0.3-0.3-0.7-0.5-1-0.8c-1-0.8-1.4-0.8-2.5,0c-2.2,1.7-4.1,3.8-6,5.9c-0.6,0.7-1.3,1.4-1.8,2.2c-0.6,0.9-0.9,1.9-1.4,2.8
	c-1,2-1,3.3,1.1,5.2c1.4,1.3,3,2.5,4.8,3.3c1.3,0.6,2.2,1.6,2.5,3.1c-0.5,0.4-0.9,0.7-1.4,1c-0.8,0.5-1.7,1-2.6,1.6
	c-4.2,2.6-8.1,5.6-12,8.6c-0.6,0.5-1.1,1-1.6,1.6c-1.2,1.4-2.3,2.8-3.4,4.2c-0.9,1.2-1.8,2.3-2.3,3.8c-0.7,2.4-0.6,4.6,1.5,6.5
	c1.8,1.7,3.9,2.4,6.1,2.7c2.9,0.4,5.6-0.4,7.9-2.1c1.5-1.1,2.7-2.5,4-3.9c1.9-2,3.6-4.2,5.1-6.6c0.7-1.1,1.2-2.2,1.8-3.3
	c0.9-1.6,1.5-3.4,1.8-5.2c0.3-2.2,0.4-4.4-0.4-6.6c-0.6-1.5-0.6-1.6,0-3c0-0.1,0.1-0.2,0,0c1-0.3,1.7-0.4,2.4-0.7
	c1.9-0.9,3.8-2,5.8-2.9c0.9-0.5,1.9-0.9,2.4-1.9c0.8,0.5,1.4,0.3,1.9-0.2c0.6-0.5,1.2-0.8,2-0.9c0.2,0,0.4-0.2,0.7-0.3
	C342.5,149.7,341.7,149.4,341,148.6z M322.7,161.7c-0.4-0.1-0.6-0.2-1.1-0.4c1-0.2,1.7-0.4,2.4-0.6c0.5,1.2,0.5,2.7,0.1,4.2
	c-0.7,2.7-1.8,5.2-2.9,7.7c-0.8,1.9-1.9,3.6-3.3,5.1c-0.2,0.2-0.3,0.5-0.5,0.5c-1.3,0.5-2.1,1.6-2.9,2.6c-1.7,2.3-4,3.7-6.6,4.6
	c-0.7,0.2-1.6-0.1-2.3,0c-1.7,0.2-2.7-0.8-3.4-2.1c-0.2-0.4-0.4-1.1-0.3-1.5c0.5-1.7,1-3.3,2.1-4.7c1.2-1.4,2.2-3,3.4-4.4
	c0.8-1,1.8-1.7,3-2.2c0.2-0.1,0.5-0.2,0.7-0.4c1.8-1.9,4.2-3.1,6.2-4.8c0.6-0.5,1.1-1,1.5-1.6c0.4-0.5,0.8-0.8,1.4-0.9
	C320.9,162.7,321.8,162.5,322.7,161.7z M315.7,182.1c0.3,0.9-0.5,1.1-0.8,1.6c-0.2,0.3-0.7,0.4-1.2,0.4c0.3-0.3,0.6-0.7,0.9-1
	C315,182.8,315.3,182.5,315.7,182.1z M323.1,159.5c-0.1,0.2-0.2,0.3-0.4,0.5c-0.1,0-0.1-0.1-0.2-0.1c0.1-0.2,0.2-0.3,0.4-0.5
	C323,159.4,323,159.4,323.1,159.5z M310.9,186.2c-0.1-0.1-0.3-0.3-0.4-0.4c0.1-0.1,0.1-0.1,0.2-0.2c0.1,0.1,0.3,0.3,0.4,0.4
	C311,186.1,311,186.1,310.9,186.2 M313.7,151.2c-1.8,1.7-3.9,3.2-6.2,4.3c-0.8,0.4-1.6,0.6-2.8,1.1c0.4-0.9,0.6-1.6,0.9-2.1
	c1.4-2.3,2.5-4.7,3-7.4c0-0.3,0.2-0.5,0.3-0.7c0.9-2.9,1.6-5.8,1.3-8.8c-0.1-1.6-0.9-2.5-2.3-3.1c-0.9-0.4-1.8-0.4-2.8-0.4
	c-1,0-1.9,0.4-2.5,1.1c-2.9,3.1-5.4,6.4-7.1,10.2c-0.2,0.4-0.4,0.9-0.6,1.3c-1.7,0.3-2.6,1.4-3.3,2.9c-0.6,1.2-1.3,2.4-2.1,3.6
	c-1,1.6-1.7,3.4-2.3,5.2c-0.2,0.7-0.4,1.5-0.4,2.3c-0.1,2,0.4,3.7,1.8,5.2c1.5,1.5,3.3,2.5,5.4,2.7c0.7,0.1,1.4-0.1,1.7-0.6
	c0.6-0.9,1.6-1.4,2.3-2.1c1.8-1.8,3.5-3.7,4.8-5.9c0.2-0.3,0.4-0.6,0.6-0.8c1-0.2,1.9-0.3,2.8-0.5c0.4-0.1,0.8-0.2,1.2-0.4
	c1-0.8,2.1-1.4,3.2-2c0.7-0.4,1.3-0.9,1.9-1.4c1.1-1,2.3-2,3.4-3C315.1,151.7,314.4,151.6,313.7,151.2z M299.1,161.6
	c-0.9,1.1-1.9,2.1-3,3c-1.1,0.9-2.4,1.4-3.8,1.7c-0.8-0.6-1-1.4-0.9-2.2c0.1-2.5,0.4-4.9,1.9-7.1c0.7-1,1.3-2,2-3.2
	c1,0.9,1.8,1.9,2.8,2.6c0.9,0.7,2,1.3,3.1,2C300.8,159.7,300,160.6,299.1,161.6 M302,156.7c-1.8-0.4-2.8-1.4-2.9-3.3
	c-0.2-1.9,0.1-3.8,0.8-5.4c1.6-3.8,4-7.2,7.2-9.9c0.1-0.1,0.3-0.2,0.5-0.3C308.4,141.3,304.7,153.8,302,156.7 M291.3,152.8
	c-0.7,0-1.3-0.1-1.8-0.4c-0.5,1.2-1.1,2.4-1.7,3.6c-1.4,2.8-2.9,5.5-4.4,8.2c-1.7,3-2.6,2.6-4.6,5.4c-0.6,0.8-1.4,1.3-2.4,1.7
	c0-0.6-0.1-1.1,0-1.6c0.7-3.7,0.6-4.1,2.1-7.6c1.9-4.4,4-8.7,6.3-13c0.7-1.2,0.9-2.5,0.7-3.8c-0.1-1.3-1.6-3-2.9-3.1
	c-0.9-0.1-1.8-0.2-2.6,0.4c-1.6,1.2-3,2.4-4.2,4c-1.5,2.1-3.2,4.1-4.8,6.1c-0.3,0.4-0.7,0.9-1,1.3c-0.1-0.3,0-0.6,0.2-0.8
	c1.2-2.5,2.4-5,3.5-7.4c0.7-1.5,0.4-2.8-0.8-3.9c-1.2-1.1-2.5-1.2-4-0.6c-1.6,0.7-3,1.8-4.2,3.1c-2.8,3.1-5.2,6.4-6.9,10.2
	c-0.9,1.8-2,3.6-3.1,5.3c-0.1-1.4,0.3-2.6,0.8-3.8c1.1-2.4,2.3-4.8,3.4-7.1c0.6-1.2,0.4-1.9-0.5-2.9c-0.8-0.9-1.9-1.2-3-1.2
	c-0.7,0-1.3,0.3-1.6,1.1c-0.9,2.3-2,4.6-2.8,6.9c-1.2,3.2-1.8,6.6-1.8,10.1c0,1,0.3,1.9,1.3,2.3c0.4,0.2,0.7,0.5,1.1,0.6
	c0.8,0.4,1.6,0.6,2.5,0.1c0.5-1.1,1-2.2,1.5-3.3c0.5-1.2,1-2.4,1.6-3.6c1.4-2.6,2.8-5.1,4.3-7.6c1.6-2.7,3.7-5.1,6-7.3
	c0.2-0.2,0.5-0.3,0.9-0.5c-0.1,0.5-0.1,0.7-0.2,1c-0.5,1-0.9,2-1.4,3c-0.5,1-1.2,1.9-0.4,3c-0.8,1.6-1.5,3.1-2.3,4.6
	c-0.3-0.1-0.6-0.3-0.8-0.4c-0.3,0.8-0.5,1.5-0.8,2.3c0.4-0.1,0.6-0.2,1-0.3c-0.2,0.5-0.3,1-0.6,1.2c-0.8,0.6-0.7,1.5-0.7,2.3
	c0,1.1,0.8,1.5,1.6,2c0.2,0.1,0.4,0.2,0.5,0.3c0.8,0.5,1.6,0.2,2.4-0.1c0.8-0.2,1.1-0.7,1.3-1.5c0-0.3,0.2-0.6,0.4-0.9
	c0.5-0.9,1.1-1.8,1.6-2.7c0.6-1,1.3-2.1,2-3.1c1.5-2.1,3.2-4,5-5.9c0.7-0.7,1.2-1.6,1.8-2.4c0.5-0.6,1-1.3,2.1-1.4
	c-0.7,1.5-1.3,2.7-1.9,4l0.1,0.1h0.6c-0.2,0.6-0.4,1.2-0.6,1.7c-0.8,1.6-1.6,3.2-2.4,4.8c-1.2,2.4-2.5,4.8-3.2,7.4
	c-0.6,2.2-0.6,1.1-0.6,3.5c0,0-0.2,0.1-0.3,0.2c-0.1-0.5-0.1-0.9-0.2-1.4c-0.2,0.2-0.3,0.2-0.3,0.3c-0.9,2.8,0.8,6.4,3.6,7.5
	c0.7,0.3,1.5,0.3,2.1-0.2c1.2-1,2.4-2.1,3.4-3.3c1.1-1.4,2-3,3-4.5c2-3.4,3.1-3.5,4.7-7C289.6,156.3,290.5,154.5,291.3,152.8
	L291.3,152.8z M234.8,164.7c-0.9-1.5-1.1-2.6-0.8-4c0.4-2.1,1.2-4.1,2.2-6.1c0.3-0.5,0.6-0.9,1.2-1.2c1-0.5,2-1.1,2.9-1.7
	c2.4-1.5,4.5-3.4,6.3-5.7c0.6-0.8,1.1-1.7,1.3-2.7c0.2-1.1-0.2-2-1.1-2.6c-1.3-0.9-2.7-1-4.2-0.5c-1.2,0.4-1.9,1.3-2.8,2
	c-3.3,2.5-5.4,5.9-7.5,9.3c-0.9,1.6-1.4,3.4-2,5.1c-1.2,3.4,0.4,8.4,4.7,10c1.9,0.7,3.7,0.4,5.3-1c0.7-0.6,1.5-1.2,2.2-1.8
	c1.2-1,2.4-2,3.4-3c3.4-3.4,6-7.3,8.9-11.1c0.1-0.1,0.1-0.3,0.2-0.4c-0.8-1.3-1.3-1.4-2.1-0.2c-1.1,1.4-2.1,2.9-3.1,4.4
	c-2.8,4.1-6,7.7-10.4,10.3C237.8,164.7,236.3,164.9,234.8,164.7z M239.7,149.3c1.3-2.1,3.4-3.5,5.4-5.3
	C244.5,145.8,242.7,147.3,239.7,149.3 M234.9,150.2c-1.1,0.6-1.5,1.7-2.2,2.5c-2,2.8-3.9,5.8-6.2,8.4c-2.2,2.7-4.9,5.1-7.8,7.2
	c-0.7,0.5-1.3,1-2.2,1.4c-1.1,0.9-1.4,1-2.6,1.6c-0.7,0.5-1.4,0.7-1.8,0.7c-0.4-1.1-0.4-1.1,0-2.1c0.6-2.1,1.2-4.2,2-6.2
	c0.9-2.3,2-4.4,3.4-6.4c1.3-1.9,2.5-3.8,3.9-5.6c0.9-1.2,0.9-2.2,0-3.3c-1.1-1.3-2.5-1.9-4.2-1.6c-0.6,0.1-1.1,0.2-1.7,0.3
	c-0.9,0.2-1.8,0.5-2.7,0.8c-1.2,0.3-1.8,0.3-2.9-0.1c0.1-0.1,0.1-0.3,0.2-0.4c1-2,2.4-3.6,4.1-5c1.3-1.2,1.3-2.6,0-3.8
	c-0.4-0.3-0.7-0.6-1.1-0.9c-0.9-0.7-2.5-0.5-3,0.2c-1.2,1.6-2.4,3.2-3.5,4.9c-0.5,0.7-0.7,1.5-1.1,2.3c-0.3,0.6-0.1,1.3,0.1,1.9
	c0.9,2.1,2.8,3.1,4.7,3.9c0.2,0.1,0.5,0,0.8,0c1.4-0.1,2.9-0.1,4.2-0.6c0,0,0.1,0.1,0.3,0.2c-1.5,2.2-3,4.5-3.9,7
	c-0.5,1.3-1,2.5-1.6,3.8c-0.6,1.4-1.1,2.9-1.8,4.2c-1.4,2.8-0.3,5.7,1.3,7.5c0.4,0.4,1,0.7,1.6,1c1.8,1.2,2.4-0.1,4.5-1.4
	c0.1-0.1,0.7-0.5,0.9-0.6c2.7-1.4,4.7-3,6.9-5c1.4-1.3,2.7-2.7,4-4.1c0.6-0.7,1.2-1.4,1.7-2.1c1.7-2.5,3.3-5,5.4-7.2
	c0.4-0.4,0.8-0.9,1.1-1.4c0.2-0.4,0.2-0.9,0.4-1.4C235.5,150.7,235.2,150.5,234.9,150.2 M211.1,162.1c0.2,0.8,0.2,1.3-0.4,1.6
	C210.4,163.1,210.9,162.8,211.1,162.1 M188.4,164.7c-0.9-1.5-1.1-2.6-0.8-4c0.4-2.1,1.2-4.1,2.2-6.1c0.3-0.5,0.6-0.9,1.2-1.2
	c1-0.5,2-1.1,2.9-1.7c2.4-1.5,4.5-3.4,6.3-5.7c0.6-0.8,1.1-1.7,1.3-2.7c0.2-1.1-0.2-2-1.1-2.6c-1.3-0.9-2.7-1-4.2-0.5
	c-1.2,0.4-1.9,1.3-2.8,2c-3.3,2.5-5.4,5.9-7.5,9.3c-0.9,1.6-1.4,3.4-2,5.1c-1.2,3.4,0.4,8.4,4.7,10c1.9,0.7,3.7,0.4,5.3-1
	c0.7-0.6,1.5-1.2,2.2-1.8c1.2-1,2.4-2,3.4-3c3.4-3.4,6-7.3,8.9-11.1c0.1-0.1,0.1-0.3,0.2-0.4c-0.8-1.3-1.3-1.4-2.1-0.2
	c-1.1,1.4-2.1,2.9-3.1,4.4c-2.8,4.1-6,7.7-10.4,10.3C191.5,164.7,190,164.9,188.4,164.7z M193.4,149.3c1.3-2.1,3.4-3.5,5.4-5.3
	C198.2,145.8,196.3,147.3,193.4,149.3 M177.9,154.9c0.1-0.6,0.3-1.2,0.6-1.7c0-0.1,0-0.3,0.1-0.4c0,0-0.1,0-0.1,0
	c0.2-0.7,0.5-1.3,0.7-1.9c0.5-1.5,0.9-2.9,0.8-4.5c-0.3-3-3.5-5.2-6.4-4.1c-0.7,0.3-1.4,0.6-2,1c-1.8,1.1-3.4,2.5-4.7,4.2
	c-1.6,2.1-3.2,4.2-4.8,6.3c-0.3,0.4-0.6,0.8-0.9,1.2c0.2-0.9,0.5-1.8,1-2.5c0.9-1.2,1.4-2.5,1.8-3.8c0.2-0.6,0.1-1.1-0.1-1.7
	c-0.5-1.5-1.7-1.8-3-2c-1.3-0.2-1.9,0.1-2.4,1.4c-0.8,2.1-1.5,4.2-2.5,6.2c-1.4,2.6-2.1,5.4-3.3,8c-0.9,2-1.6,4-2.3,6.1
	c-0.2,0.5-0.2,1-0.3,1.5c-0.2,0.2-0.4,0.4-0.5,0.6c-0.4,1.4-0.8,2.8-1.2,4.2c0.2,0.2,0.4,0.4,0.6,0.6c-0.4,0.2-0.7,0.3-1,0.4
	c-0.7,2.6-1.5,5.1-2.2,7.6c-0.3,1.1-0.8,2.1-0.5,3.2c-0.9,1-1.1,2.2-0.8,3.3c-0.3,0.6-0.6,1-0.7,1.5c-0.2,0.9-0.4,1.7-0.6,2.6
	c-0.3,1.9-0.3,3.8,0,5.7c0.1,0.6,0.4,1.3,0.8,1.7c1.1,0.8,2.3,1.4,3.7,1.3c0.5-0.5,0.5-1,0.5-1.6c0-1.5,0-3.1,0-4.6
	c0-0.5,0-1.1,0.1-1.6c0.6-2.7,1.2-5.4,1.9-8c0.2-1,0.6-2,0.8-3.1c1.2-5.4,3.1-10.6,5.1-15.8c0.3,0.7,0.6,1.4,1,1.9
	c1.9,2.4,4.5,3.2,7.4,3c0.5,0,1.1-0.4,1.6-0.7c1.4-1,2.6-2.1,3.7-3.4c2.5-3,4.7-6.3,6.5-9.7c0.2-0.4,0.5-0.8,0.8-1.1
	C177.5,155.7,177.7,155.3,177.9,154.9z M150.1,168.1c0.2-0.3,0.5-0.5,1-1.1c-0.4,1.3-0.2,2.3-1.2,3.3
	C150,169.5,150.1,168.8,150.1,168.1z M145.4,184.7c0.2-0.2,0.4-0.4,0.7-0.7c0.1,0.5,0,0.8-0.4,1
	C145.6,184.9,145.5,184.7,145.4,184.7 M151.2,174.5c-0.8,2.5-1.7,5-2.3,7.5c-0.8,2.9-1.8,5.8-2.5,8.8c-0.1,0.3-0.3,0.6-0.5,0.9
	c-0.1,0-0.2-0.1-0.3-0.1c1.4-6.8,3.5-13.4,5.9-20c0.2,0.3,0.3,0.4,0.3,0.5C151.6,172.8,151.4,173.7,151.2,174.5 M152.3,170.5
	c-0.3-0.8-0.3-0.8,0-1.5C153,169.5,152.7,169.9,152.3,170.5 M153.2,168c-0.2-0.9,0-1.3,0.7-1.5C153.7,166.9,153.5,167.4,153.2,168
	 M155.6,162.4c-0.1,0-0.2-0.1-0.3-0.1c0.2-0.4,0.4-0.8,0.5-1.3c0.1,0,0.2,0.1,0.3,0.1C155.9,161.5,155.8,161.9,155.6,162.4
	 M164.7,166.8c0.5-0.7,0.7-1.5,1.5-1.9C165.9,165.7,165.6,166.5,164.7,166.8 M166.7,163c-1.2,1.3-2.4,2.5-3.7,3.7
	c-0.5,0.5-1.1,0.8-1.7,1.1c-0.9,0.4-1.5,0.3-1.9-0.2c-0.5-0.7-0.5-1.4,0.2-2.1c0.5-0.5,1.1-1,1.7-1.4c2-1.2,4.1-2.4,6.1-3.6
	c0.3-0.2,0.5-0.3,0.8-0.4c0.1,0.1,0.2,0.2,0.2,0.3C168,161.2,167.5,162.2,166.7,163z M175,147.4c-0.7,2.6-1.9,5-3.1,7.4
	c-0.9,1.8-2.2,2.8-3.9,3.4c-1.8,0.6-3.3,1.7-4.9,2.6c-1,0.6-2,1.1-3.2,1.5c0.2-0.4,0.4-0.8,0.6-1.1c0.2-0.4,0.5-0.8,0.7-1.2
	c1.3-1.9,2.6-3.9,3.9-5.7c1.8-2.4,3.6-4.7,5.4-7c1.1-1.4,2.5-2.2,4.5-2.3C175.4,145.8,175.2,146.6,175,147.4 M159.5,149.3
	c-0.3,0-0.5,0-0.7-0.1c-0.6,1-1.1,2-1.6,3c-1.7,3.5-3.7,6.9-6.1,10c-1.2,1.6-2.5,3-3.9,4.4c-0.9,0.9-2,1.5-3.3,1.6
	c-0.5-0.5-0.7-1.1-0.7-1.8c0-0.7-0.1-1.5,0-2.2c0.4-3.4,1.1-6.7,2.2-9.9c1-2.7,1.9-5.5,3.2-8.1c0.8-1.6-0.1-3.4-1.5-4.1
	c-1.1-0.5-2.1-0.2-3.2-0.1c-0.7,1-1.4,2-2,2.9c-1.3,1.9-2.7,3.8-4.1,5.7c-2.2,3.2-4.6,6.3-7.2,9.2c-0.8,0.9-1.7,1.8-3,2.1
	c-0.3-1.1-0.3-1.1-0.2-1.8c1-4.6,2.8-9,4.9-13.2c0.4-0.7,0.6-1.5,0.9-2.2c0.1-0.3,0-0.8-0.1-1.1c-0.5-1.1-1.3-1.8-2.4-2.2
	c-1.2-0.5-2.2,0-2.6,1.3c-0.4,1.1-0.8,2.2-1.2,3.3c-1,2.5-2.1,5-2.8,7.6c-0.4,1.6-0.8,3.2-1.2,4.7c-0.7,2.2-0.2,4.2,1.8,5.4
	c1.7,1,2.7,1.4,4.2,0.3c2-1.6,4-3.2,5.5-5.5c0.4-0.6,0.9-1.2,1.4-1.7c0.7-0.8,1.4-1.6,2-2.5c0.7-1.1,1.4-2.3,2.1-3.4
	c0.6-0.8,1.2-1.6,1.8-2.4c-0.5,2.2-1,4.3-1.7,6.4c-0.9,3.1-1.5,6.1-1.6,9.3c0,1.2,0.3,2.2,1,3.1c0.8,1.1,1.8,2,3,2.5
	c2.3,1,4.3,0.9,6.3-0.9c1.4-1.3,2.4-2.8,3.4-4.3c2.4-3.7,4.7-7.4,6.4-11.4c0.1-0.3,0.3-0.6,0.5-0.8c0.6-1.1,1.2-2.1,1.8-3.2
	C160.3,149.3,159.9,149.3,159.5,149.3z M128.7,150.4c-0.5,0-0.9-0.1-1.4-0.2c-0.1,0.1-0.1,0.1-0.2,0.2c-1,1.1-2.1,2.3-3.1,3.4
	c-2.9,2.9-6.3,5.2-9.5,7.7c-1.2,0.9-2.6,1.7-3.9,2.4c-0.8,0.4-1.7,0.6-2.6,0.8c-0.5,0.1-1,0-1.2-0.6c-0.4-1-0.8-2.1-0.5-3.2
	c0.4-1.9,1-3.6,1.7-5.4c1.2-3.1,2.8-5.9,4.9-8.4c1.1-1.3,2.2-2.5,3.3-3.8c0.2,0.6,0.1,1.1,0,1.7c-0.1,0.8-0.3,1.6-0.4,2.3
	c-0.1,1,0.3,1.3,1.3,1.5c0.3,0,0.6,0,1-0.1c0.4-1.2,0.7-4,0.6-4.8c0-0.3-0.1-0.5-0.1-0.8c-0.3-1.5-1.3-2.4-2.8-2.7
	c-2.2-0.4-4.1,0.1-5.5,1.9c-2,2.6-4,5.2-5.4,8.2c-1.1,2.4-2.3,4.8-2.8,7.4c-0.2,1.2-0.4,2.5,0.1,3.6c1.1,2.8,2.9,4.8,6.1,5.4
	c0.9,0.2,1.8,0.1,2.6-0.5c0.9-0.6,1.8-1.2,2.6-2c0.9-0.8,1.9-1.3,2.8-2c2.1-1.6,4.1-3.3,6.2-5c0.7-0.6,1.4-1.1,2-1.8
	c1.6-1.7,3.1-3.5,4.6-5.2c0,0,0,0,0,0C129.1,150.4,128.9,150.4,128.7,150.4z M86.3,164.7c-0.9-1.5-1.1-2.6-0.8-4
	c0.4-2.1,1.2-4.1,2.2-6.1c0.3-0.5,0.6-0.9,1.2-1.2c1-0.5,2-1.1,2.9-1.7c2.4-1.5,4.5-3.4,6.3-5.7c0.6-0.8,1.1-1.7,1.3-2.7
	c0.2-1.1-0.2-2-1.1-2.6c-1.3-0.9-2.7-1-4.2-0.5c-1.2,0.4-1.9,1.3-2.8,2c-3.3,2.5-5.4,5.9-7.5,9.3c-0.9,1.6-1.4,3.4-2,5.1
	c-1.2,3.4,0.4,8.4,4.7,10c1.9,0.7,3.7,0.4,5.3-1c0.7-0.6,1.5-1.2,2.2-1.8c1.2-1,2.4-2,3.4-3c3.4-3.4,6-7.3,8.9-11.1
	c0.1-0.1,0.1-0.3,0.2-0.4c-0.8-1.3-1.3-1.4-2.1-0.2c-1.1,1.4-2.1,2.9-3.1,4.4c-2.8,4.1-6,7.7-10.4,10.3
	C89.3,164.7,87.8,164.9,86.3,164.7z M91.3,149.3c1.3-2.1,3.4-3.5,5.4-5.3C96.1,145.8,94.2,147.3,91.3,149.3 M24.8,130.5L24.8,130.5
	c0.1,0,0.4,0.1,0.3,0.3c-0.4,0.7-0.9,1.3-1.8,1.5c-0.4,0.1-0.9,0.4-1.1,0.8c-0.3,0.9-1.1,1.4-1.4,2.3c-0.2,0.6-0.6,1.1-0.8,1.7
	c-0.5,1.4-0.6,2.9-0.2,4.4c0.7,2.1,2,3.7,3.3,5.4c0.4,0.5,0.9,0.8,1.4,1.2c0.2,0.2,0.5,0.2,0.8,0.4c0.2,0.1,0.5-0.1,0.5-0.3
	c0.1-0.4,0-0.7-0.2-1c-0.2-0.3-0.5-0.6-0.7-0.9c-0.6-0.7-0.9-1.4-1.3-2.2c-0.2-0.4-0.2-0.9-0.2-1.3c0.1-0.9,0.2-1.8,0.5-2.7
	c0.5-1.8,1.3-3.4,2.8-4.6c0.6-0.5,1-1.1,1.4-1.7c0.3-0.5,0.7-0.9,1.1-1.3c0.6-0.6,1.2-1.1,1.6-1.8c0.3-0.5,0.7-0.9,1.1-1.2
	c0.5-0.4,1-0.8,1.4-1.2c0.8-0.7,1.6-1.6,2.8-1.5c0.6-0.2,1.3-0.4,1.7-1c0.3-0.5,0.7-0.8,1.1-1c1.1-0.5,2.2-1,3.2-1.6
	c1-0.5,1.9-0.9,3-1.3c2.1-0.7,4.2-1.1,6.3-1.5c0.8-0.1,1.6-0.3,2.4-0.3c2.3-0.1,4.7-0.2,7,0.1c0.8,0.1,1.6,0.1,2.4,0.2
	c1.3,0.2,2.6,0.4,3.9,0.5c0.3,0,0.6,0.1,0.8,0.3c0.5,0.2,1,0.3,1.5,0c0.2-0.1,0.6-0.1,0.8,0c1.4,0.6,2.8,1.4,4,2.4
	c0.2,0.1,0.3,0.3,0.4,0.5c0.5,1.1,0.8,2.1,0.6,3.3c-0.2,1.4-0.4,2.7-1,4c-0.2,0.3-0.3,0.6-0.2,1l0,0c0.4,0.1,0.5-0.4,0.9-0.4
	c0.2,0.2,0.1,0.4,0,0.6c-0.5,0.7-1.1,1.3-1.4,2.1c-0.1,0.2-0.2,0.3-0.3,0.4c-0.7,0.7-1.4,1.3-2,2.1c-1,1.2-2.2,2.1-3.5,3
	c-1.9,1.4-4,2.4-6,3.7c-0.1,0.1-0.2,0.1-0.3,0.1c-2.1,1.1-4.2,2.3-6.3,3.4c-1.3,0.7-2.5,1.4-3.8,2c-2,0.9-4.1,1.4-6.2,1.9
	c-0.2,0.1-0.5,0.1-0.7,0.1c-0.2,0-0.4-0.2-0.4-0.5c0.4-1.1,0.9-2.2,1.3-3.3c1.3-3.1,2.7-6.2,3.7-9.4c0.1-0.4,0.4-0.8,0.6-1.2l0,0
	c0-0.1,0-0.1,0-0.2c0.3-1.1,0.8-2.1,1.3-3.1c0.1-0.1,0.2-0.3,0.3-0.3c0.6-0.1,0.8-0.6,1-1.1c0.3-0.7,0.6-1.4,0.6-2.1
	c0-0.8,0.2-1.6,0.1-2.4c0-0.4-0.2-0.6-0.4-0.9c-0.6-0.9-1.5-1.3-2.4-1.8c-0.5-0.3-1.1-0.3-1.7-0.3c-0.4,0-0.8,0.3-0.8,0.7
	c0.1,0.6-0.1,1.1-0.3,1.7c-0.2,0.5-0.3,1-0.5,1.5c-0.3,0.9-0.6,1.8-1,2.6c-1,2-1.6,4.2-2.5,6.2c-0.4,0.9-0.7,1.9-1.1,2.9
	c-0.1,0.2-0.2,0.4-0.2,0.7c-0.1,0.8-0.4,1.5-0.7,2.3c-1,2.4-1.8,4.9-3,7.3c-0.3,0.6-0.4,1.4-0.6,2.1c0.3,0.9-0.1,1.6-0.5,2.3
	c-0.3,0.5-0.4,0.9-0.5,1.4c-0.1,0.7-0.1,1.5-0.3,2.2c-0.2,0.8-0.6,1.5-0.9,2.2c-0.2,0.5-0.1,1.1-0.2,1.7c-0.1,0.6-0.5,1.2-0.6,1.8
	c-0.2,1.1-0.6,2.2-0.6,3.4c0,0.2,0,0.4-0.1,0.5c-0.5,1.3-0.6,2.7-0.9,4c-0.2,0.8-0.2,1.7-0.2,2.6c0,0.7-0.1,1.4-0.1,2.1
	c0,0.2-0.1,0.5,0,0.7c0.3,0.8,0.5,1.6,0.9,2.4c0.4,0.9,1.2,1.5,2.1,1.9c0.5,0.2,1,0.5,1.6,0.7c0.3,0.1,0.6,0.3,0.9,0.4
	c0.6,0.3,1.1,0.1,1.7,0c0.2,0,0.4-0.3,0.3-0.5c0-0.2,0-0.4-0.2-0.5c-0.5-0.4-0.9-1.1-1.6-1.3c-0.5-0.2-0.6-0.6-0.7-1.1
	c-0.2-0.9,0-1.8,0-2.7c0-2.7,0.6-5.3,1-8c0.1-0.8,0.5-1.7,0.6-2.5c0.6-3,1.5-6,2.3-8.9c0.5-0.1,0.6,0.3,0.9,0.5
	c1.2,1.1,2.6,2.1,4,2.9c1.2,0.7,2.3,1.5,3.4,2.3c0.7,0.5,1.4,1,2.1,1.4c2,1.3,4.1,2.5,6.2,3.7c1,0.6,2,1.3,3,1.9
	c1.8,1.1,3.4,2.5,5.3,3.6c1.5,0.9,3,2,4.5,2.8c1.7,1,3.5,1.9,5.3,2.8c0.3,0.2,0.6,0.3,0.9,0.4c2.5,0.9,5.1,1.8,7.8,2.1
	c1.4,0.2,2.7,0.4,4.1,0.6c1.4,0.2,2.7,0.5,4.1,0.4c0.1,0,0.1,0,0.2,0c0.4,0.2,0.8,0.1,1.2-0.1c1.7-0.8,3.4-1.6,5.1-2.4
	c0.3-0.1,0.5-0.2,0.7-0.4c0.6-0.6,1.4-1,2-1.6c0.3-0.2,0.6-0.5,0.9-0.8c0.4-0.4,0.6-0.9,0.5-1.6c0-0.2-0.1-0.3-0.1-0.5
	c0-0.5,0.2-1,0.6-1.3c0.1-0.1,0.1-0.2,0.1-0.3c-0.3-0.8-1-1.1-1.8-1.2c-0.2,0-0.5,0-0.6,0.2c-1,0.7-1.9,1.5-2.9,2.2
	c-0.5,0.3-0.5,0.7-0.5,1.2c-0.5,0.3-1,0.5-1.4,0.9c-0.5,0.6-1.1,0.7-1.9,0.6c-0.3-0.1-0.7-0.1-1,0c-0.8,0.3-1.6,0.2-2.4,0.1
	c-1.3-0.1-2.6-0.3-3.9-0.4c-0.3,0-0.6,0-0.8-0.2c-0.8-0.3-1.6-0.4-2.3-0.5c-1.1-0.2-2.2-0.5-3.3-0.7c-0.4-0.1-0.7-0.2-1.2,0
	c-0.5,0.2-1-0.1-1.5-0.3c-0.8-0.3-1.5-0.8-2.3-1.1c-1.3-0.5-2.5-1.5-3.9-1.9c-0.1,0-0.2-0.1-0.3-0.2c-0.7-0.4-1.3-0.9-2-1.3
	c-3-1.9-6.1-3.6-8.9-5.8c-0.2-0.1-0.4-0.2-0.6-0.4c-2.3-1.4-4.6-2.8-6.8-4.3c-2.4-1.5-4.8-3.1-7.2-4.7c-0.6-0.4-1.1-0.8-1.6-1.2
	c-0.1-0.1-0.2-0.3-0.3-0.4c0.2-0.1,0.3-0.2,0.5-0.2c1.6-0.3,3.2-0.8,4.8-1.1c1.8-0.4,3.5-0.9,5.1-1.9c1-0.6,2-1.2,3-1.7
	c0.6-0.3,1.3-0.6,1.8-1c1.6-1.2,3.5-1.9,5.1-3.1c0.8-0.3,1.4-1,2.2-1.3c0.8-0.4,1.5-0.9,2.2-1.4c1-0.6,1.8-1.4,2.8-2
	c0.3-0.2,0.7-0.5,0.8-0.8c0.6-1.3,1.6-2.4,2.6-3.4c0.6-0.6,1-1.3,1.3-2.2c0.2-0.6,0.3-1.2,0.7-1.8c0.5-0.8,0.6-1.7,0.7-2.6
	c0-0.7,0.1-1.5,0-2.2c0-0.5-0.1-0.9-0.2-1.3c-0.5-1.7-1.5-2.9-2.8-4c-0.8-0.7-1.6-1.3-2.5-1.8c-1.9-1.4-3.9-2.6-6.1-3.4
	c-1.3-0.5-2.7-1-4-1.5c-0.2-0.1-0.3-0.1-0.5-0.1c-1.3-0.2-2.6-0.4-3.9-0.6c-0.3,0-0.6,0-0.8-0.1c-0.8-0.4-1.7-0.3-2.5-0.2
	c-1,0.1-1.9,0.4-2.9,0.3c-2.1-0.2-4.1-0.1-6.1,0.4c-0.2,0-0.3,0-0.5,0c-0.8,0.1-1.6,0.2-2.2,0.8c-0.3,0.3-0.7,0.4-1.1,0.5
	c-1.2,0.3-2.4,0.9-3.5,1.4c-1.3,0.5-2.5,1.2-3.5,2.1c-0.3,0.3-0.7,0.4-1.1,0.4c-0.3,0-0.5,0.1-0.8,0.3c-0.4,0.3-0.8,0.6-1.2,1
	c-1.1,0.8-2.1,1.7-3.3,2.4c-0.5,0.3-1.1,0.5-1.5,0.8c-0.4,0.4-0.7,0.9-1,1.3c-0.1,0.1-0.1,0.2-0.2,0.3c-0.5,0.5-0.7,1-0.7,1.7
	c-0.1,0.7-0.5,1.3-1.1,1.6C25.1,130.1,25,130.3,24.8,130.5z M75.6,130c0,0.2,0,0.3,0,0.5c0,0.1,0,0.1,0,0.1c-0.1,0.1-0.2,0-0.1-0.1
	C75.6,130.3,75.6,130.2,75.6,130c0.2-0.4,0.3-0.9,0.4-1.3c0.1-0.5,0.1-0.9,0.2-1.5c0.1,0.6,0.2,1-0.2,1.4c0,0.3,0,0.6,0,0.8
	C76,129.8,75.9,129.9,75.6,130 M40,121.2c0-0.2,0-0.5,0.1-0.6c0.1-0.1,0.4-0.1,0.6-0.1c0,0,0.1,0,0.2,0.1c0.1,0.1,0.2,0.2,0.1,0.3
	C40.7,121.2,40.4,121.3,40,121.2c-0.1,0.1,0,0.3-0.1,0.4c-0.5,0.4-0.9,0.7-1.6,0.6c-0.2,0.3-0.5,0.4-0.8,0.4c0,0-0.1-0.1-0.1-0.2
	c0,0,0-0.1,0.1-0.1c0.3-0.2,0.6-0.1,0.9-0.1c0-0.2,0-0.3,0-0.5c0-0.2,0.1-0.4,0.3-0.3C39.1,121.7,39.5,121,40,121.2z M42.6,148.9
	c0,0.2,0,0.3,0,0.5c0,0,0,0.1-0.1,0.1c-0.1-0.1-0.2-0.2-0.2-0.2C42.5,149.2,42.6,149.1,42.6,148.9c0.1-0.4,0.3-0.7,0.3-1.1
	c0-0.9,0.4-1.6,1-2.3c0,0,0.1-0.1,0.1-0.1c0.1-0.1,0.4-0.1,0.4,0c0.1,0.1,0.1,0.3,0.1,0.3c-0.6,0.6-0.5,1.5-0.8,2.2
	C43.5,148.5,43.3,148.9,42.6,148.9z M94.3,180.4c-0.1,0.3-0.4,0.4-0.7,0.4c-1.8-0.2-3.6-0.3-5.4-0.7c-0.3-0.1-0.6-0.3-0.5-0.3
	c0.1-0.1,0.3-0.2,0.4-0.2c1.4-0.3,2.7-0.1,4,0.2c0.3,0.1,0.7,0.1,1,0.2C93.6,180.1,94,180.2,94.3,180.4 M80.1,177
	c2.1,0.4,2.1,0.4,3.3,1.2c-0.3,0-0.5,0-0.8,0c-0.7-0.2-1.4-0.4-2.1-0.7C80.5,177.4,80.4,177.2,80.1,177 M42.5,150.6
	c0,0.2-0.2,0.4-0.4,0.5c0,0-0.1,0-0.2,0c-0.1-0.1-0.1-0.2-0.1-0.3c0-0.2,0.1-0.3,0.2-0.4c0-0.1,0.2-0.1,0.3,0
	C42.4,150.3,42.4,150.5,42.5,150.6z M36.1,165.6c0,0-0.1,0-0.1-0.1c-0.1-0.2,0-0.5,0.2-0.6c0,0,0.1,0,0.1,0c0.2,0.1,0.1,0.4,0,0.6
	C36.3,165.6,36.2,165.6,36.1,165.6z M46.7,117.6c0,0,0,0.1-0.1,0.1c0,0-0.1,0-0.1-0.1c0,0-0.1-0.1-0.1-0.1c0.1,0,0.1,0,0.2,0
	C46.6,117.5,46.7,117.6,46.7,117.6z M41.3,152.9c0,0.1,0,0.2-0.1,0.3c0,0-0.1,0-0.1,0c0-0.1-0.1-0.2,0-0.3
	C41.2,152.7,41.3,152.8,41.3,152.9z M34.8,176.6c0,0-0.1,0.1-0.1,0.1c0-0.1,0-0.2,0-0.3c0,0,0.1-0.1,0.1-0.1
	C34.9,176.4,34.9,176.4,34.8,176.6z M37.7,121.5c0,0,0.1,0,0.1,0c0.1,0.1,0.1,0.2-0.1,0.2c0,0-0.1-0.1-0.1-0.1
	S37.7,121.6,37.7,121.5z M47.6,117.2l-0.1-0.1L47.6,117.2L47.6,117.2z M31,125.9c0,0-0.1-0.1-0.1-0.1c0.1,0,0.2-0.1,0.3-0.1
	c0,0,0.1,0.1,0.1,0.1C31.1,125.9,31.1,125.9,31,125.9"/>
</svg>
