<?xml version="1.0" encoding="utf-8"?>
<!-- Generator: Adobe Illustrator 22.0.0, SVG Export Plug-In . SVG Version: 6.00 Build 0)  -->
<svg version="1.1" id="Capa_1" xmlns="http://www.w3.org/2000/svg" xmlns:xlink="http://www.w3.org/1999/xlink" x="0px" y="0px"
	 viewBox="0 0 612 792" style="enable-background:new 0 0 612 792;" xml:space="preserve">
<style type="text/css">
	.st0{fill:#FFFFFF;}
</style>
<path class="st0" d="M165.4,108.8c-1.2-0.7-2.5-1.2-4-1.7c-1.3-0.4-2.5-0.8-3.6-1.3c-1-0.4-1.9-0.9-2.5-1.4
	c-0.4-0.3-0.6-0.7-0.6-1.3c0-0.5,0.1-0.9,0.3-1.2c0.2-0.3,0.5-0.6,0.8-0.8c0.4-0.2,0.8-0.4,1.4-0.5c0.6-0.1,1.2-0.2,1.8-0.2
	c1.2,0,2.2,0.2,2.9,0.6c0.8,0.5,1.5,0.9,1.9,1.4l0.1,0.1l0.1,0c0.3,0.2,0.6,0.4,0.9,0.6c0.4,0.2,0.8,0.3,1.2,0.3
	c0.9,0,1.7-0.4,2.3-1.2c0.4-0.6,0.6-1.3,0.6-1.9c0-0.8-0.3-1.6-1-2.3c-0.9-1-2.1-1.9-3.6-2.6c-1.6-0.7-3.4-1.1-5.5-1.1
	c-1.5,0-2.9,0.2-4.2,0.6c-1.3,0.4-2.5,1-3.4,1.8c-1,0.8-1.8,1.7-2.4,2.8c-0.6,1.1-0.9,2.4-0.9,3.7c0,1.8,0.5,3.4,1.5,4.6
	c0.9,1.1,2,2,3.3,2.7c1.2,0.7,2.6,1.2,4,1.7c1.3,0.4,2.5,0.8,3.6,1.3c1,0.4,1.8,0.9,2.5,1.5c0.4,0.4,0.6,0.8,0.6,1.5
	c0,1-0.4,1.7-1.1,2.3c-0.9,0.6-2.1,0.9-3.7,0.9c-0.8,0-1.5-0.1-2.2-0.3c-0.6-0.2-1.2-0.4-1.8-0.7c-0.5-0.3-1-0.6-1.3-0.9
	c-0.4-0.3-0.7-0.7-1.1-1.1c-0.3-0.3-0.6-0.5-0.9-0.7c-0.5-0.3-1-0.4-1.5-0.4c-0.8,0-1.6,0.3-2.2,1c-0.5,0.6-0.8,1.3-0.8,2.1
	c0,0.9,0.3,1.7,0.9,2.3c1.2,1.5,2.7,2.6,4.4,3.5c1.8,0.9,3.9,1.3,6.2,1.3c1.7,0,3.2-0.2,4.6-0.7c1.4-0.5,2.6-1.1,3.6-2
	c1-0.9,1.8-1.9,2.4-3.1c0.6-1.2,0.9-2.5,0.9-3.9c0-1.8-0.5-3.3-1.5-4.5C167.8,110.4,166.7,109.6,165.4,108.8z M197.6,99
	c-1.3-1.4-2.9-2.6-4.7-3.4c-1.8-0.8-3.8-1.2-6-1.2s-4.2,0.4-6,1.2c-1.8,0.8-3.4,1.9-4.7,3.4c-1.3,1.4-2.3,3.1-3,5
	c-0.7,1.9-1.1,3.9-1.1,6.1c0,2.2,0.4,4.2,1.1,6.1c0.7,1.9,1.7,3.6,3,5c1.3,1.4,2.9,2.5,4.7,3.3c1.8,0.8,3.8,1.2,6,1.2s4.2-0.4,6-1.2
	c1.8-0.8,3.4-1.9,4.7-3.3c1.3-1.4,2.3-3.1,3-5c0.7-1.9,1-4,1-6.1c0-2.2-0.4-4.2-1.1-6.1C199.9,102.1,198.9,100.4,197.6,99z
	 M194.5,113.9c-0.4,1.1-0.9,2.1-1.6,3c-0.7,0.8-1.5,1.5-2.5,1.9c-1,0.5-2.1,0.7-3.4,0.7c-1.3,0-2.4-0.2-3.4-0.7
	c-1-0.5-1.8-1.1-2.5-1.9c-0.7-0.8-1.2-1.8-1.6-3c-0.4-1.2-0.6-2.4-0.6-3.8c0-1.4,0.2-2.7,0.6-3.8c0.4-1.1,0.9-2.2,1.6-3
	c0.7-0.8,1.5-1.5,2.5-1.9c1-0.5,2.1-0.7,3.4-0.7c1.2,0,2.4,0.2,3.4,0.7c1,0.5,1.8,1.1,2.5,2c0.7,0.8,1.3,1.9,1.6,3
	c0.4,1.2,0.6,2.5,0.6,3.8C195.1,111.5,194.9,112.8,194.5,113.9z M32.3,119.2l-7.5-10.3c2.3-0.8,4.1-2.1,5.4-3.9
	c1.6-2.2,2.5-4.8,2.5-7.7c0-3.9-1.2-7.1-3.6-9.5c-2.4-2.3-5.9-3.5-10.4-3.5H8.3c-0.9,0-1.7,0.3-2.4,0.9c-0.6,0.6-1,1.4-1,2.4v34.3
	c0,0.9,0.3,1.7,0.9,2.3c0.6,0.6,1.4,0.9,2.4,0.9c1.2,0,2-0.5,2.4-0.9c0.6-0.6,0.9-1.4,0.9-2.3V110h6l9.2,13.2c1.1,1.6,2.3,2,3.2,2
	c1.2,0,2-0.5,2.4-0.9c0.6-0.6,0.9-1.4,0.9-2.2c0-0.5-0.1-0.9-0.3-1.4C33,120.2,32.7,119.7,32.3,119.2z M22.1,103.3
	c-1,0.3-2.2,0.5-3.6,0.5h-6.9V90.6h6.8c2.5,0,4.4,0.6,5.7,1.8c1.3,1.2,1.9,2.8,1.9,5c0,1-0.1,1.9-0.4,2.6c-0.3,0.8-0.7,1.4-1.3,2
	C23.8,102.5,23.1,103,22.1,103.3z M59.1,98.3c-1.2-1.2-2.7-2.1-4.3-2.8c-1.7-0.7-3.5-1-5.5-1c-2.1,0-4,0.4-5.8,1.2
	c-1.8,0.8-3.3,1.9-4.6,3.4c-1.3,1.4-2.3,3.1-3.1,5c-0.7,1.9-1.1,4-1.1,6.2c0,2.2,0.4,4.2,1.1,6.1c0.7,1.9,1.7,3.5,3,4.9
	c1.3,1.4,2.9,2.5,4.7,3.3c1.8,0.8,3.8,1.2,6,1.2c2.4,0,4.6-0.4,6.6-1.2c2-0.8,3.5-1.8,4.7-3c0.3-0.3,0.5-0.6,0.7-1
	c0.3-0.5,0.4-1,0.4-1.5c0-0.7-0.3-1.5-0.8-2.1c-0.6-0.7-1.4-1-2.3-1c-0.6,0-1.3,0.3-1.9,0.8c-0.8,0.7-1.8,1.4-3,2
	c-1.1,0.5-2.6,0.8-4.2,0.8c-1.3,0-2.5-0.2-3.5-0.7c-1-0.4-1.9-1.1-2.6-1.9c-0.7-0.8-1.3-1.8-1.7-2.9c-0.3-0.7-0.5-1.5-0.6-2.3h17.9
	c1.9,0,2.7-0.9,3.1-1.6c0.4-0.8,0.6-1.7,0.6-2.8c0-1.7-0.3-3.3-1-4.9C61.3,100.9,60.3,99.5,59.1,98.3z M41.7,106.5
	c0.2-0.6,0.4-1.1,0.6-1.6c0.5-0.9,1.1-1.7,1.8-2.4c0.7-0.6,1.5-1.1,2.4-1.4c0.9-0.3,1.8-0.5,2.8-0.5c1.1,0,2.2,0.2,3.1,0.6
	c0.9,0.4,1.7,1,2.4,1.7c0.6,0.7,1.1,1.4,1.4,2.3c0.2,0.4,0.3,0.8,0.3,1.3H41.7z M91.6,95c-1.1,0-1.9,0.5-2.3,0.9
	c-0.6,0.6-0.9,1.3-0.9,2.2v0.1c-0.5-0.5-1-1-1.6-1.4c-1.9-1.5-4.3-2.2-7.2-2.2c-2,0-3.8,0.4-5.6,1.2c-1.7,0.8-3.2,1.9-4.5,3.3
	c-1.3,1.4-2.3,3.1-3,5c-0.7,1.9-1.1,4-1.1,6.3c0,2.3,0.4,4.4,1.1,6.2c0.7,1.9,1.7,3.6,3,4.9c1.3,1.4,2.8,2.4,4.5,3.2
	c1.7,0.8,3.6,1.2,5.5,1.2c2.7,0,5.1-0.7,7.1-2.2c0.7-0.5,1.3-1.1,1.9-1.7c-0.1,2.6-0.6,4.7-1.7,6.1c-1.1,1.4-2.9,2.1-5.6,2.1
	c-1.1,0-2-0.1-2.8-0.3c-0.8-0.2-1.6-0.5-2.2-0.7c-0.7-0.3-1.2-0.6-1.7-0.8c-0.7-0.3-1.3-0.5-1.9-0.5c-0.8,0-1.6,0.3-2.1,0.9
	c-0.5,0.6-0.8,1.3-0.8,2.2c0,0.7,0.2,2,1.9,2.9c1.2,0.7,2.5,1.3,4,1.8c1.6,0.5,3.4,0.8,5.5,0.8c4.5,0,8-1.2,10.4-3.7
	c2.4-2.4,3.7-6.1,3.7-10.9V98c0-0.8-0.3-1.6-0.9-2.1C93.4,95.3,92.6,95,91.6,95z M87.7,114c-0.4,1.1-1,2.1-1.8,2.9
	c-0.7,0.8-1.6,1.4-2.6,1.9c-1,0.4-2.1,0.7-3.2,0.7c-1.1,0-2.2-0.2-3.2-0.7c-1-0.4-1.9-1.1-2.6-1.9c-0.7-0.8-1.3-1.8-1.8-3
	c-0.4-1.2-0.7-2.4-0.7-3.8c0-1.4,0.2-2.7,0.6-3.8c0.4-1.2,1-2.2,1.7-3c0.7-0.8,1.6-1.5,2.6-1.9c1-0.5,2.1-0.7,3.3-0.7
	c1.2,0,2.3,0.2,3.3,0.7c1,0.5,1.9,1.1,2.6,1.9c0.7,0.8,1.3,1.8,1.7,3c0.4,1.2,0.6,2.5,0.6,3.9C88.3,111.5,88.1,112.8,87.7,114z
	 M140.9,98.3c-1.2-1.2-2.7-2.1-4.3-2.8c-1.7-0.7-3.5-1-5.5-1c-2.1,0-4,0.4-5.8,1.2c-1.8,0.8-3.3,1.9-4.6,3.4c-1.3,1.4-2.3,3.1-3.1,5
	c-0.7,1.9-1.1,4-1.1,6.2c0,2.2,0.4,4.2,1.1,6.1c0.7,1.9,1.7,3.5,3,4.9c1.3,1.4,2.9,2.5,4.7,3.3c1.8,0.8,3.8,1.2,6,1.2
	c2.4,0,4.6-0.4,6.6-1.2c2-0.8,3.5-1.8,4.7-3c0.3-0.3,0.5-0.6,0.7-1c0.3-0.5,0.4-1,0.4-1.5c0-0.7-0.3-1.5-0.8-2.1
	c-0.6-0.7-1.4-1.1-2.3-1.1c-0.6,0-1.3,0.3-1.9,0.8c-0.8,0.7-1.8,1.4-3,2c-1.1,0.5-2.6,0.8-4.2,0.8c-1.3,0-2.5-0.2-3.5-0.7
	c-1-0.4-1.9-1.1-2.6-1.9c-0.7-0.8-1.3-1.8-1.7-2.9c-0.3-0.7-0.5-1.5-0.6-2.3H141c1.9,0,2.7-0.9,3.1-1.6c0.4-0.8,0.6-1.7,0.6-2.8
	c0-1.7-0.3-3.3-1-4.9C143,100.9,142.1,99.5,140.9,98.3z M123.4,106.5c0.2-0.6,0.4-1.1,0.6-1.6c0.5-0.9,1.1-1.7,1.8-2.4
	c0.7-0.6,1.5-1.1,2.4-1.4c0.9-0.3,1.8-0.5,2.8-0.5c1.1,0,2.2,0.2,3.1,0.6c0.9,0.4,1.7,1,2.4,1.7c0.6,0.7,1.1,1.4,1.4,2.3
	c0.2,0.4,0.3,0.8,0.3,1.3H123.4z M117.8,97.4c0-0.9-0.3-1.7-1-2.2c-0.6-0.5-1.4-0.8-2.4-0.8c-2.8,0-5,0.7-6.7,1.9
	c-0.5,0.3-0.9,0.7-1.3,1.2c-0.1-0.8-0.5-1.4-0.8-1.7c-0.6-0.6-1.3-0.9-2.3-0.9c-1.2,0-1.9,0.5-2.3,0.9c-0.6,0.6-0.9,1.3-0.9,2.1V122
	c0,0.9,0.3,1.7,1,2.3c0.6,0.6,1.4,0.9,2.3,0.9c0.9,0,1.7-0.3,2.3-0.9c0.6-0.6,1-1.4,1-2.3v-12.8c0-2.8,0.7-4.9,2.2-6.3
	c1.5-1.5,3.4-2.2,5.8-2.2c1.3,0,2-0.5,2.4-1C117.5,99.1,117.8,98.3,117.8,97.4z M539,95c-0.9,0-1.6,0.3-2.3,0.9
	c-0.7,0.6-1,1.4-1,2.3v15.2c0,1.9-0.5,3.3-1.5,4.5c-0.9,1.1-2.3,1.6-4.2,1.6s-3.3-0.5-4.2-1.6c-1-1.2-1.5-2.6-1.5-4.5V98.2
	c0-0.9-0.3-1.7-1-2.3c-0.6-0.6-1.4-0.9-2.3-0.9c-0.9,0-1.7,0.3-2.3,0.9c-0.6,0.6-1,1.4-1,2.3v15.1c0,1.7,0.3,3.3,0.8,4.8
	c0.5,1.5,1.3,2.9,2.4,4c1.1,1.1,2.3,2,3.8,2.7c1.5,0.6,3.2,0.9,5.2,0.9c1.9,0,3.7-0.3,5.2-0.9c1.5-0.6,2.8-1.5,3.9-2.7
	c1-1.1,1.8-2.5,2.3-4c0.5-1.5,0.8-3.1,0.8-4.8V98.2c0-0.9-0.3-1.7-1-2.3C540.7,95.3,539.9,95,539,95z M509.5,95
	c-1.1,0-1.9,0.5-2.3,0.9c-0.6,0.6-0.9,1.3-0.9,2.2v0.1c-0.5-0.5-1-1-1.6-1.4c-1.9-1.5-4.3-2.2-7.2-2.2c-2,0-3.8,0.4-5.6,1.2
	c-1.7,0.8-3.2,1.9-4.5,3.3c-1.3,1.4-2.3,3.1-3,5c-0.7,1.9-1.1,4-1.1,6.3c0,2.3,0.4,4.4,1.1,6.2c0.7,1.9,1.7,3.6,3,4.9
	c1.3,1.4,2.8,2.4,4.5,3.2c1.7,0.8,3.6,1.2,5.5,1.2c2.7,0,5.1-0.7,7.1-2.2c0.7-0.5,1.3-1.1,1.9-1.7c-0.1,2.6-0.6,4.7-1.7,6.1
	c-1.1,1.4-2.9,2.1-5.6,2.1c-1.1,0-2-0.1-2.8-0.3c-0.8-0.2-1.6-0.5-2.2-0.7c-0.7-0.3-1.2-0.6-1.7-0.8c-0.7-0.3-1.3-0.5-1.9-0.5
	c-0.8,0-1.6,0.3-2.1,0.9c-0.5,0.6-0.8,1.3-0.8,2.2c0,0.7,0.2,2,1.9,2.9c1.2,0.7,2.5,1.3,4,1.8c1.6,0.5,3.4,0.8,5.5,0.8
	c4.5,0,8-1.2,10.4-3.7c2.4-2.4,3.7-6.1,3.7-10.9V98c0-0.8-0.3-1.6-0.9-2.1C511.3,95.3,510.5,95,509.5,95z M505.6,114
	c-0.4,1.1-1,2.1-1.8,2.9c-0.7,0.8-1.6,1.4-2.6,1.9c-1,0.4-2.1,0.7-3.2,0.7s-2.2-0.2-3.2-0.7c-1-0.5-1.8-1.1-2.6-1.9
	c-0.7-0.8-1.3-1.8-1.8-3c-0.4-1.2-0.7-2.4-0.7-3.8c0-1.4,0.2-2.7,0.6-3.8c0.4-1.2,1-2.2,1.7-3c0.7-0.8,1.6-1.5,2.6-1.9
	s2.1-0.7,3.3-0.7s2.3,0.2,3.3,0.7c1,0.5,1.9,1.1,2.6,1.9c0.7,0.8,1.3,1.8,1.7,3c0.4,1.2,0.6,2.5,0.6,3.9
	C506.3,111.5,506,112.8,505.6,114z M477,98.3c-1.2-1.2-2.7-2.1-4.3-2.8c-1.7-0.7-3.5-1-5.5-1c-2.1,0-4,0.4-5.8,1.2
	c-1.8,0.8-3.3,1.9-4.6,3.4c-1.3,1.4-2.3,3.1-3.1,5c-0.7,1.9-1.1,4-1.1,6.2c0,2.2,0.4,4.2,1.1,6.1c0.7,1.9,1.7,3.5,3,4.9
	c1.3,1.4,2.9,2.5,4.7,3.3c1.8,0.8,3.8,1.2,6,1.2c2.4,0,4.6-0.4,6.6-1.2c2-0.8,3.5-1.8,4.7-3c0.3-0.3,0.5-0.6,0.7-1
	c0.3-0.5,0.4-1,0.4-1.5c0-0.7-0.3-1.5-0.8-2.1c-0.6-0.7-1.4-1.1-2.3-1.1c-0.6,0-1.3,0.3-1.9,0.8c-0.8,0.7-1.8,1.4-3,2
	c-1.1,0.5-2.6,0.8-4.2,0.8c-1.3,0-2.5-0.2-3.5-0.7c-1-0.4-1.9-1.1-2.6-1.9c-0.7-0.8-1.3-1.8-1.7-2.9c-0.3-0.7-0.5-1.5-0.6-2.3h17.9
	c1.9,0,2.7-0.9,3.1-1.6c0.4-0.8,0.6-1.7,0.6-2.8c0-1.7-0.3-3.3-1-4.9C479.2,100.9,478.2,99.5,477,98.3z M459.6,106.5
	c0.2-0.6,0.4-1.1,0.6-1.6c0.5-0.9,1.1-1.7,1.8-2.4c0.7-0.6,1.5-1.1,2.4-1.4c0.9-0.3,1.8-0.5,2.8-0.5c1.1,0,2.2,0.2,3.1,0.6
	c0.9,0.4,1.7,1,2.4,1.7c0.6,0.7,1.1,1.4,1.4,2.3c0.2,0.4,0.3,0.8,0.3,1.3H459.6z M592.3,104c-0.7-1.9-1.7-3.6-3-5
	c-1.3-1.4-2.9-2.6-4.7-3.4c-1.8-0.8-3.8-1.2-6-1.2s-4.2,0.4-6,1.2c-1.8,0.8-3.4,1.9-4.7,3.4c-1.3,1.4-2.3,3.1-3,5
	c-0.7,1.9-1.1,3.9-1.1,6.1c0,2.2,0.4,4.2,1,6.1c0.7,1.9,1.7,3.6,3,5c1.3,1.4,2.9,2.5,4.7,3.3c1.8,0.8,3.8,1.2,6,1.2s4.2-0.4,6-1.2
	c1.8-0.8,3.4-1.9,4.7-3.3c1.3-1.4,2.3-3.1,3-5c0.7-1.9,1-4,1-6.1C593.3,107.9,593,105.9,592.3,104z M586.1,113.9
	c-0.4,1.1-0.9,2.1-1.6,3c-0.7,0.8-1.5,1.5-2.5,1.9c-1,0.5-2.1,0.7-3.4,0.7c-1.3,0-2.4-0.2-3.4-0.7c-1-0.5-1.8-1.1-2.5-1.9
	c-0.7-0.8-1.2-1.8-1.6-3c-0.4-1.2-0.6-2.4-0.6-3.8c0-1.4,0.2-2.7,0.6-3.8c0.4-1.1,0.9-2.1,1.6-3c0.7-0.8,1.5-1.5,2.5-1.9
	c1-0.5,2.1-0.7,3.4-0.7c1.2,0,2.4,0.2,3.4,0.7c1,0.5,1.9,1.1,2.5,2c0.7,0.8,1.3,1.9,1.6,3c0.4,1.2,0.6,2.5,0.6,3.8
	C586.7,111.5,586.5,112.8,586.1,113.9z M565.1,97.4c0-0.9-0.3-1.7-1-2.2c-0.6-0.5-1.4-0.8-2.4-0.8c-2.8,0-5,0.7-6.7,1.9
	c-0.5,0.3-0.9,0.7-1.3,1.2c-0.1-0.8-0.5-1.4-0.8-1.7c-0.6-0.6-1.3-0.9-2.3-0.9c-1.2,0-1.9,0.5-2.3,0.9c-0.6,0.6-0.9,1.3-0.9,2.1V122
	c0,0.9,0.3,1.7,1,2.3c0.6,0.6,1.4,0.9,2.3,0.9c0.9,0,1.7-0.3,2.3-0.9c0.6-0.6,1-1.4,1-2.3v-12.8c0-2.8,0.7-4.9,2.2-6.3
	s3.4-2.2,5.8-2.2c1.3,0,2-0.5,2.4-1C564.9,99.1,565.1,98.3,565.1,97.4z M445.8,108.8c-1.2-0.7-2.5-1.2-4-1.7
	c-1.3-0.4-2.5-0.8-3.6-1.3c-1-0.4-1.9-0.9-2.5-1.4c-0.4-0.3-0.6-0.7-0.6-1.3c0-0.5,0.1-0.9,0.3-1.2c0.2-0.3,0.5-0.6,0.8-0.8
	c0.4-0.2,0.8-0.4,1.3-0.5c0.6-0.1,1.2-0.2,1.8-0.2c1.2,0,2.2,0.2,2.9,0.6c0.8,0.5,1.5,0.9,1.9,1.4l0.1,0.1l0.1,0
	c0.3,0.2,0.6,0.4,0.9,0.6c0.4,0.2,0.8,0.3,1.2,0.3c0.9,0,1.7-0.4,2.3-1.2c0.4-0.6,0.6-1.3,0.6-1.9c0-0.8-0.3-1.6-1-2.3
	c-0.9-1-2.1-1.9-3.6-2.6c-1.6-0.7-3.4-1.1-5.5-1.1c-1.5,0-2.9,0.2-4.2,0.6c-1.3,0.4-2.5,1-3.4,1.8c-1,0.8-1.8,1.7-2.4,2.8
	c-0.6,1.1-0.9,2.4-0.9,3.7c0,1.8,0.5,3.4,1.5,4.6c0.9,1.1,2,2,3.3,2.7c1.2,0.7,2.6,1.2,4,1.7c1.3,0.4,2.5,0.8,3.6,1.3
	c1,0.4,1.8,0.9,2.5,1.5c0.4,0.4,0.6,0.8,0.6,1.5c0,1-0.4,1.7-1.1,2.3c-0.9,0.6-2.1,0.9-3.7,0.9c-0.8,0-1.5-0.1-2.2-0.3
	c-0.7-0.2-1.2-0.4-1.8-0.7c-0.5-0.3-1-0.6-1.3-0.9c-0.4-0.3-0.7-0.7-1.1-1.1c-0.3-0.3-0.6-0.5-0.9-0.7c-0.5-0.3-1-0.4-1.5-0.4
	c-0.8,0-1.6,0.3-2.2,1c-0.5,0.6-0.8,1.3-0.8,2.1c0,0.9,0.3,1.7,0.9,2.3c1.2,1.5,2.7,2.6,4.4,3.5c1.8,0.9,3.9,1.3,6.2,1.3
	c1.7,0,3.2-0.2,4.6-0.7c1.4-0.5,2.6-1.1,3.6-2c1-0.9,1.8-1.9,2.4-3.1c0.6-1.2,0.9-2.5,0.9-3.9c0-1.8-0.5-3.3-1.5-4.5
	C448.2,110.4,447.1,109.6,445.8,108.8z M384.4,98.3c-1.2-1.2-2.7-2.1-4.3-2.8c-1.7-0.7-3.5-1-5.5-1c-2.1,0-4,0.4-5.8,1.2
	c-1.8,0.8-3.3,1.9-4.6,3.4c-1.3,1.4-2.3,3.1-3.1,5c-0.7,1.9-1.1,4-1.1,6.2c0,2.2,0.4,4.2,1.1,6.1c0.7,1.9,1.7,3.5,3,4.9
	c1.3,1.4,2.9,2.5,4.7,3.3c1.8,0.8,3.8,1.2,6,1.2c2.4,0,4.6-0.4,6.6-1.2c2-0.8,3.5-1.8,4.7-3c0.3-0.3,0.5-0.6,0.7-1
	c0.3-0.5,0.4-1,0.4-1.5c0-0.7-0.3-1.5-0.8-2.1c-0.6-0.7-1.4-1.1-2.3-1.1c-0.6,0-1.3,0.3-1.9,0.8c-0.8,0.7-1.8,1.4-3,2
	c-1.1,0.5-2.6,0.8-4.2,0.8c-1.3,0-2.5-0.2-3.5-0.7c-1-0.4-1.9-1.1-2.6-1.9c-0.7-0.8-1.3-1.8-1.7-2.9c-0.3-0.7-0.5-1.5-0.6-2.3h17.9
	c1.9,0,2.7-0.9,3.1-1.6c0.4-0.8,0.6-1.7,0.6-2.8c0-1.7-0.3-3.3-1-4.9C386.5,100.9,385.6,99.5,384.4,98.3z M366.9,106.5
	c0.2-0.6,0.4-1.1,0.6-1.6c0.5-0.9,1.1-1.7,1.8-2.4c0.7-0.6,1.5-1.1,2.4-1.4c0.9-0.3,1.8-0.5,2.8-0.5c1.1,0,2.2,0.2,3.1,0.6
	c0.9,0.4,1.7,1,2.4,1.7c0.6,0.7,1.1,1.4,1.4,2.3c0.2,0.4,0.3,0.8,0.3,1.3H366.9z M297.7,119c-0.1,0-0.1,0-0.1,0
	c-0.1-0.2-0.1-0.5-0.1-1.2V87.5c0-0.9-0.3-1.7-0.9-2.3c-0.6-0.6-1.4-0.9-2.3-0.9c-1.2,0-2,0.5-2.4,0.9c-0.6,0.6-0.9,1.4-0.9,2.3V118
	c0,2.2,0.4,3.8,1.3,5.1c1,1.4,2.5,2.1,4.7,2.1c1.1,0,2-0.3,2.6-0.9c0.6-0.6,1-1.4,1-2.3c0-0.7-0.2-1.3-0.6-1.9
	C299.3,119.3,298.6,119,297.7,119z M331.1,119C331.1,119,331.1,119,331.1,119c-0.2-0.4-0.3-0.9-0.3-1.4V98c0-0.9-0.4-1.7-1-2.2
	c-0.6-0.5-1.4-0.8-2.3-0.8c-0.9,0-1.7,0.3-2.3,0.8c-0.6,0.6-1,1.3-1,2.2v0c-0.5-0.5-1.1-1-1.7-1.5c-1.9-1.4-4.3-2.1-7.1-2.1
	c-2,0-3.9,0.4-5.6,1.2c-1.7,0.8-3.2,1.9-4.5,3.3c-1.3,1.4-2.3,3.1-3,5c-0.7,1.9-1.1,4-1.1,6.2c0,2.2,0.4,4.3,1,6.2
	c0.7,1.9,1.7,3.6,3,4.9c1.3,1.4,2.8,2.5,4.5,3.3c1.7,0.8,3.6,1.2,5.6,1.2c2.7,0,5.1-0.7,7.1-2.2c0.8-0.6,1.6-1.3,2.3-2.1
	c0.2,0.7,0.5,1.3,0.9,1.8c0.9,1.3,2.5,2,4.6,2c2.6,0,3.6-1.6,3.6-3.2C333.8,119.8,332.4,119,331.1,119z M323.7,114.1
	c-0.4,1.1-1,2.1-1.8,2.9c-0.7,0.8-1.6,1.4-2.6,1.9c-1,0.4-2.1,0.7-3.2,0.7c-1.2,0-2.4-0.2-3.4-0.7c-1-0.4-1.9-1.1-2.6-1.9
	c-0.7-0.8-1.3-1.8-1.7-3c-0.4-1.2-0.6-2.4-0.6-3.8c0-1.4,0.2-2.7,0.6-3.9c0.4-1.2,1-2.2,1.7-3c0.7-0.8,1.5-1.5,2.5-1.9
	c1-0.5,2.2-0.7,3.4-0.7c1.2,0,2.3,0.2,3.3,0.7c1,0.5,1.9,1.1,2.6,2c0.7,0.9,1.3,1.9,1.7,3c0.4,1.2,0.6,2.5,0.6,3.9
	C324.4,111.6,324.2,112.9,323.7,114.1z M269.4,103.3c0.7-0.8,1.6-1.5,2.6-2c1-0.5,2.1-0.7,3.2-0.7c1,0,1.8,0.1,2.5,0.4
	c0.8,0.3,1.4,0.7,2,1.1c0.6,0.4,1,0.8,1.4,1.3c0.4,0.5,0.7,0.8,0.9,1.1l0.1,0.1l0.1,0.1c0.2,0.2,0.4,0.4,0.7,0.6
	c0.5,0.4,1,0.6,1.7,0.6c0.7,0,1.5-0.3,2-0.8c0.4-0.4,1-1.1,1-2.3c0-0.6-0.2-1.2-0.5-1.8c-0.3-0.5-0.5-0.9-0.8-1.2
	c-0.5-0.6-1.1-1.2-1.8-1.9c-0.7-0.7-1.5-1.2-2.5-1.8c-0.9-0.5-2-0.9-3.1-1.3c-1.2-0.3-2.5-0.5-3.9-0.5c-2.1,0-4,0.4-5.8,1.2
	c-1.8,0.8-3.3,1.9-4.6,3.4c-1.3,1.4-2.3,3.1-3,5c-0.7,1.9-1.1,3.9-1.1,6.1c0,2.2,0.4,4.2,1.1,6.1c0.7,1.9,1.7,3.6,3,5
	c1.3,1.4,2.8,2.5,4.6,3.3c1.8,0.8,3.8,1.2,5.9,1.2c2.6,0,4.9-0.6,6.9-1.7c1.9-1.1,3.4-2.4,4.6-4c0.5-0.6,0.8-1.4,0.8-2.3
	c0-1.3-0.6-2-1-2.3c-0.6-0.4-1.3-0.7-2-0.7c-0.6,0-1.5,0.2-2.4,1.1l-0.1,0.1l0,0.1c-0.9,1.1-1.9,2-3,2.7c-1.1,0.6-2.3,0.9-3.7,0.9
	c-1.2,0-2.3-0.2-3.3-0.7c-1-0.5-1.8-1.1-2.5-1.9c-0.7-0.8-1.3-1.8-1.7-3c-0.4-1.2-0.6-2.5-0.6-3.8c0-1.3,0.2-2.6,0.6-3.8
	C268.1,105.2,268.6,104.2,269.4,103.3z M353.2,108.8c-1.2-0.7-2.5-1.2-4-1.7c-1.3-0.4-2.5-0.8-3.6-1.3c-1-0.4-1.9-0.9-2.5-1.4
	c-0.4-0.3-0.6-0.7-0.6-1.3c0-0.5,0.1-0.9,0.3-1.2c0.2-0.3,0.5-0.6,0.8-0.8c0.4-0.2,0.8-0.4,1.3-0.5c0.6-0.1,1.2-0.2,1.8-0.2
	c1.2,0,2.2,0.2,2.9,0.6c0.8,0.5,1.5,0.9,1.9,1.4l0.1,0.1l0.1,0c0.3,0.2,0.6,0.4,0.9,0.6c0.4,0.2,0.8,0.3,1.2,0.3
	c0.9,0,1.7-0.4,2.3-1.2c0.4-0.6,0.6-1.3,0.6-1.9c0-0.8-0.3-1.6-1-2.3c-0.9-1-2.1-1.9-3.6-2.6c-1.6-0.7-3.4-1.1-5.5-1.1
	c-1.5,0-2.9,0.2-4.2,0.6c-1.3,0.4-2.5,1-3.4,1.8c-1,0.8-1.8,1.7-2.4,2.8c-0.6,1.1-0.9,2.4-0.9,3.7c0,1.8,0.5,3.4,1.5,4.6
	c0.9,1.1,2,2,3.3,2.7c1.2,0.7,2.6,1.2,4,1.7c1.3,0.4,2.5,0.8,3.6,1.3c1,0.4,1.8,0.9,2.5,1.5c0.4,0.4,0.6,0.8,0.6,1.5
	c0,1-0.4,1.7-1.1,2.3c-0.9,0.6-2.1,0.9-3.7,0.9c-0.8,0-1.5-0.1-2.2-0.3c-0.7-0.2-1.2-0.4-1.8-0.7c-0.5-0.3-1-0.6-1.3-0.9
	c-0.4-0.3-0.7-0.7-1.1-1.1c-0.3-0.3-0.6-0.5-0.9-0.7c-0.5-0.3-1-0.4-1.5-0.4c-0.8,0-1.6,0.3-2.2,1c-0.5,0.6-0.8,1.3-0.8,2.1
	c0,0.9,0.3,1.7,0.9,2.3c1.2,1.5,2.7,2.6,4.4,3.5c1.8,0.9,3.9,1.3,6.2,1.3c1.7,0,3.2-0.2,4.6-0.7c1.4-0.5,2.6-1.1,3.6-2
	c1-0.9,1.8-1.9,2.4-3.1c0.6-1.2,0.9-2.5,0.9-3.9c0-1.8-0.5-3.3-1.5-4.5C355.5,110.4,354.4,109.6,353.2,108.8z M245.2,119
	C245.1,119,245.1,119,245.2,119c-0.2-0.4-0.3-0.9-0.3-1.4V98c0-0.9-0.4-1.7-1-2.2c-0.6-0.5-1.4-0.8-2.3-0.8c-0.9,0-1.7,0.3-2.3,0.8
	c-0.6,0.6-1,1.3-1,2.2v0c-0.5-0.5-1.1-1-1.7-1.5c-1.9-1.4-4.3-2.1-7.1-2.1c-2,0-3.9,0.4-5.6,1.2c-1.7,0.8-3.2,1.9-4.5,3.3
	c-1.3,1.4-2.3,3.1-3,5c-0.7,1.9-1.1,4-1.1,6.2c0,2.2,0.4,4.3,1.1,6.2c0.7,1.9,1.7,3.6,3,4.9c1.3,1.4,2.8,2.5,4.5,3.3
	c1.7,0.8,3.6,1.2,5.6,1.2c2.7,0,5.1-0.7,7.1-2.2c0.8-0.6,1.6-1.3,2.3-2.1c0.2,0.7,0.5,1.3,0.9,1.8c0.9,1.3,2.5,2,4.6,2
	c2.6,0,3.6-1.6,3.6-3.2C247.9,119.8,246.4,119,245.2,119z M237.8,114.1c-0.4,1.1-1,2.1-1.8,2.9c-0.7,0.8-1.6,1.4-2.6,1.9
	c-1,0.4-2.1,0.7-3.2,0.7c-1.2,0-2.4-0.2-3.4-0.7c-1-0.4-1.9-1.1-2.6-1.9c-0.7-0.8-1.3-1.8-1.7-3c-0.4-1.2-0.6-2.4-0.6-3.8
	c0-1.4,0.2-2.7,0.6-3.9c0.4-1.2,1-2.2,1.7-3c0.7-0.8,1.5-1.5,2.5-1.9c1-0.5,2.2-0.7,3.4-0.7c1.2,0,2.3,0.2,3.3,0.7
	c1,0.5,1.9,1.1,2.6,2c0.7,0.9,1.3,1.9,1.7,3c0.4,1.2,0.6,2.5,0.6,3.9C238.4,111.6,238.2,112.9,237.8,114.1z M408.9,108.8
	c-1.2-0.7-2.5-1.2-4-1.7c-1.3-0.4-2.5-0.8-3.6-1.3c-1-0.4-1.9-0.9-2.5-1.4c-0.4-0.3-0.6-0.7-0.6-1.3c0-0.5,0.1-0.9,0.3-1.2
	c0.2-0.3,0.5-0.6,0.8-0.8c0.4-0.2,0.8-0.4,1.3-0.5c0.6-0.1,1.2-0.2,1.8-0.2c1.2,0,2.2,0.2,2.9,0.6c0.8,0.5,1.5,0.9,1.9,1.4l0.1,0.1
	l0.1,0c0.3,0.2,0.6,0.4,0.9,0.6c0.4,0.2,0.8,0.3,1.2,0.3c0.9,0,1.7-0.4,2.3-1.2c0.4-0.6,0.6-1.3,0.6-1.9c0-0.8-0.3-1.6-1-2.3
	c-0.9-1-2.1-1.9-3.6-2.6c-1.6-0.7-3.4-1.1-5.5-1.1c-1.5,0-2.9,0.2-4.2,0.6c-1.3,0.4-2.5,1-3.4,1.8c-1,0.8-1.8,1.7-2.4,2.8
	c-0.6,1.1-0.9,2.4-0.9,3.7c0,1.8,0.5,3.4,1.5,4.6c0.9,1.1,2,2,3.3,2.7c1.2,0.7,2.6,1.2,4,1.7c1.3,0.4,2.5,0.8,3.6,1.3
	c1,0.4,1.8,0.9,2.5,1.5c0.4,0.4,0.6,0.8,0.6,1.5c0,1-0.4,1.7-1.1,2.3c-0.9,0.6-2.1,0.9-3.7,0.9c-0.8,0-1.5-0.1-2.2-0.3
	c-0.7-0.2-1.2-0.4-1.8-0.7c-0.5-0.3-1-0.6-1.3-0.9c-0.4-0.3-0.7-0.7-1.1-1.1c-0.3-0.3-0.6-0.5-0.9-0.7c-0.5-0.3-1-0.4-1.5-0.4
	c-0.8,0-1.6,0.3-2.2,1c-0.5,0.6-0.8,1.3-0.8,2.1c0,0.9,0.3,1.7,0.9,2.3c1.2,1.5,2.7,2.6,4.4,3.5c1.8,0.9,3.9,1.3,6.2,1.3
	c1.7,0,3.2-0.2,4.6-0.7c1.4-0.5,2.6-1.1,3.6-2c1-0.9,1.8-1.9,2.4-3.1c0.6-1.2,0.9-2.5,0.9-3.9c0-1.8-0.5-3.3-1.5-4.5
	C411.3,110.4,410.2,109.6,408.9,108.8z"/>
</svg>
