<?xml version="1.0" encoding="utf-8"?>
<!-- Generator: Adobe Illustrator 22.0.0, SVG Export Plug-In . SVG Version: 6.00 Build 0)  -->
<svg version="1.1" id="Capa_1" xmlns="http://www.w3.org/2000/svg" xmlns:xlink="http://www.w3.org/1999/xlink" x="0px" y="0px"
	 viewBox="0 0 20.4 24.6" style="enable-background:new 0 0 20.4 24.6;" xml:space="preserve">
<style type="text/css">
	.st0{fill:#C4E3DE;}
	.st1{fill:none;}
</style>
<path class="st0" d="M10.2,24.5c-1.9,0-5.7-1.1-7-2.7c-2.4-3-2.7-6.6-3-9.5s-0.3-5.8-0.1-7.9c0.2-2,1.8-3.1,2.9-3.6
	C4.1,0.4,7.1,0,10.2,0s6.2,0.4,7.2,0.9c1.1,0.5,2.6,1.5,2.9,3.6c0.2,2,0.2,5-0.1,7.9c-0.3,2.9-0.6,6.5-3,9.5
	C15.9,23.4,12.1,24.5,10.2,24.5"/>
<rect x="20.7" y="3.1" class="st1" width="31.8" height="38"/>
</svg>
